<mxfile host="Electron" agent="Mozilla/5.0 (X11; Linux x86_64) AppleWebKit/537.36 (KHTML, like Gecko) draw.io/27.0.9 Chrome/134.0.6998.205 Electron/35.4.0 Safari/537.36" version="27.0.9">
  <diagram name="Page-1" id="EOANkZ3Bpo1E2wLRgknk">
    <mxGraphModel dx="1181" dy="687" grid="1" gridSize="10" guides="1" tooltips="1" connect="1" arrows="1" fold="1" page="1" pageScale="1" pageWidth="827" pageHeight="1169" math="0" shadow="0">
      <root>
        <mxCell id="0" />
        <mxCell id="1" parent="0" />
        <mxCell id="PWnDcDmy1SN2u1ibr4in-71" value="" style="rounded=0;whiteSpace=wrap;html=1;fillColor=none;strokeColor=#FF1010;" parent="1" vertex="1">
          <mxGeometry x="50" y="80" width="250" height="160" as="geometry" />
        </mxCell>
        <mxCell id="PWnDcDmy1SN2u1ibr4in-1" value="" style="endArrow=classic;html=1;rounded=0;endFill=1;" parent="1" edge="1">
          <mxGeometry width="50" height="50" relative="1" as="geometry">
            <mxPoint x="40" y="120" as="sourcePoint" />
            <mxPoint x="720" y="120" as="targetPoint" />
          </mxGeometry>
        </mxCell>
        <mxCell id="PWnDcDmy1SN2u1ibr4in-80" value="ref" style="edgeLabel;html=1;align=center;verticalAlign=middle;resizable=0;points=[];" parent="PWnDcDmy1SN2u1ibr4in-1" vertex="1" connectable="0">
          <mxGeometry x="0.9826" y="-2" relative="1" as="geometry">
            <mxPoint x="16" y="8" as="offset" />
          </mxGeometry>
        </mxCell>
        <mxCell id="PWnDcDmy1SN2u1ibr4in-2" value="" style="endArrow=classic;html=1;rounded=0;endFill=1;" parent="1" edge="1">
          <mxGeometry width="50" height="50" relative="1" as="geometry">
            <mxPoint x="40" y="160" as="sourcePoint" />
            <mxPoint x="720" y="160" as="targetPoint" />
          </mxGeometry>
        </mxCell>
        <mxCell id="PWnDcDmy1SN2u1ibr4in-85" value="a" style="edgeLabel;html=1;align=center;verticalAlign=middle;resizable=0;points=[];" parent="PWnDcDmy1SN2u1ibr4in-2" vertex="1" connectable="0">
          <mxGeometry x="0.97" y="2" relative="1" as="geometry">
            <mxPoint x="20" y="12" as="offset" />
          </mxGeometry>
        </mxCell>
        <mxCell id="PWnDcDmy1SN2u1ibr4in-3" value="" style="endArrow=classic;html=1;rounded=0;endFill=1;" parent="1" edge="1">
          <mxGeometry width="50" height="50" relative="1" as="geometry">
            <mxPoint x="40" y="200" as="sourcePoint" />
            <mxPoint x="720" y="200" as="targetPoint" />
          </mxGeometry>
        </mxCell>
        <mxCell id="PWnDcDmy1SN2u1ibr4in-84" value="b" style="edgeLabel;html=1;align=center;verticalAlign=middle;resizable=0;points=[];" parent="PWnDcDmy1SN2u1ibr4in-3" vertex="1" connectable="0">
          <mxGeometry x="0.9756" y="2" relative="1" as="geometry">
            <mxPoint x="17" y="11" as="offset" />
          </mxGeometry>
        </mxCell>
        <mxCell id="PWnDcDmy1SN2u1ibr4in-5" value="" style="ellipse;whiteSpace=wrap;html=1;aspect=fixed;fillColor=#dae8fc;strokeColor=#6c8ebf;" parent="1" vertex="1">
          <mxGeometry x="60" y="190" width="20" height="20" as="geometry" />
        </mxCell>
        <mxCell id="PWnDcDmy1SN2u1ibr4in-6" value="" style="ellipse;whiteSpace=wrap;html=1;aspect=fixed;fillColor=#dae8fc;strokeColor=#6c8ebf;" parent="1" vertex="1">
          <mxGeometry x="221" y="190" width="20" height="20" as="geometry" />
        </mxCell>
        <mxCell id="PWnDcDmy1SN2u1ibr4in-44" value="" style="ellipse;whiteSpace=wrap;html=1;aspect=fixed;fillColor=#dae8fc;strokeColor=#6c8ebf;" parent="1" vertex="1">
          <mxGeometry x="310" y="190" width="20" height="20" as="geometry" />
        </mxCell>
        <mxCell id="PWnDcDmy1SN2u1ibr4in-45" value="" style="ellipse;whiteSpace=wrap;html=1;aspect=fixed;fillColor=#dae8fc;strokeColor=#6c8ebf;" parent="1" vertex="1">
          <mxGeometry x="430" y="190" width="20" height="20" as="geometry" />
        </mxCell>
        <mxCell id="PWnDcDmy1SN2u1ibr4in-46" value="" style="ellipse;whiteSpace=wrap;html=1;aspect=fixed;fillColor=#dae8fc;strokeColor=#6c8ebf;" parent="1" vertex="1">
          <mxGeometry x="550" y="190" width="20" height="20" as="geometry" />
        </mxCell>
        <mxCell id="PWnDcDmy1SN2u1ibr4in-47" value="" style="ellipse;whiteSpace=wrap;html=1;aspect=fixed;fillColor=#dae8fc;strokeColor=#6c8ebf;" parent="1" vertex="1">
          <mxGeometry x="670" y="190" width="20" height="20" as="geometry" />
        </mxCell>
        <mxCell id="PWnDcDmy1SN2u1ibr4in-48" value="" style="ellipse;whiteSpace=wrap;html=1;aspect=fixed;fillColor=#d5e8d4;strokeColor=#82b366;" parent="1" vertex="1">
          <mxGeometry x="70" y="150" width="20" height="20" as="geometry" />
        </mxCell>
        <mxCell id="PWnDcDmy1SN2u1ibr4in-49" value="" style="ellipse;whiteSpace=wrap;html=1;aspect=fixed;fillColor=#d5e8d4;strokeColor=#82b366;" parent="1" vertex="1">
          <mxGeometry x="110" y="150" width="20" height="20" as="geometry" />
        </mxCell>
        <mxCell id="PWnDcDmy1SN2u1ibr4in-50" value="" style="ellipse;whiteSpace=wrap;html=1;aspect=fixed;fillColor=#d5e8d4;strokeColor=#82b366;" parent="1" vertex="1">
          <mxGeometry x="190" y="150" width="20" height="20" as="geometry" />
        </mxCell>
        <mxCell id="PWnDcDmy1SN2u1ibr4in-51" value="" style="ellipse;whiteSpace=wrap;html=1;aspect=fixed;fillColor=#d5e8d4;strokeColor=#82b366;" parent="1" vertex="1">
          <mxGeometry x="250" y="150" width="20" height="20" as="geometry" />
        </mxCell>
        <mxCell id="PWnDcDmy1SN2u1ibr4in-52" value="" style="ellipse;whiteSpace=wrap;html=1;aspect=fixed;fillColor=#d5e8d4;strokeColor=#82b366;" parent="1" vertex="1">
          <mxGeometry x="310" y="150" width="20" height="20" as="geometry" />
        </mxCell>
        <mxCell id="PWnDcDmy1SN2u1ibr4in-53" value="" style="ellipse;whiteSpace=wrap;html=1;aspect=fixed;fillColor=#d5e8d4;strokeColor=#82b366;" parent="1" vertex="1">
          <mxGeometry x="390" y="150" width="20" height="20" as="geometry" />
        </mxCell>
        <mxCell id="PWnDcDmy1SN2u1ibr4in-54" value="" style="ellipse;whiteSpace=wrap;html=1;aspect=fixed;fillColor=#d5e8d4;strokeColor=#82b366;" parent="1" vertex="1">
          <mxGeometry x="470" y="150" width="20" height="20" as="geometry" />
        </mxCell>
        <mxCell id="PWnDcDmy1SN2u1ibr4in-55" value="" style="ellipse;whiteSpace=wrap;html=1;aspect=fixed;fillColor=#d5e8d4;strokeColor=#82b366;" parent="1" vertex="1">
          <mxGeometry x="550" y="150" width="20" height="20" as="geometry" />
        </mxCell>
        <mxCell id="PWnDcDmy1SN2u1ibr4in-56" value="" style="ellipse;whiteSpace=wrap;html=1;aspect=fixed;fillColor=#d5e8d4;strokeColor=#82b366;" parent="1" vertex="1">
          <mxGeometry x="590" y="150" width="20" height="20" as="geometry" />
        </mxCell>
        <mxCell id="PWnDcDmy1SN2u1ibr4in-57" value="" style="ellipse;whiteSpace=wrap;html=1;aspect=fixed;fillColor=#d5e8d4;strokeColor=#82b366;" parent="1" vertex="1">
          <mxGeometry x="640" y="150" width="20" height="20" as="geometry" />
        </mxCell>
        <mxCell id="PWnDcDmy1SN2u1ibr4in-58" value="" style="ellipse;whiteSpace=wrap;html=1;aspect=fixed;fillColor=#f8cecc;strokeColor=#b85450;" parent="1" vertex="1">
          <mxGeometry x="60" y="110" width="20" height="20" as="geometry" />
        </mxCell>
        <mxCell id="PWnDcDmy1SN2u1ibr4in-59" value="" style="ellipse;whiteSpace=wrap;html=1;aspect=fixed;fillColor=#f8cecc;strokeColor=#b85450;" parent="1" vertex="1">
          <mxGeometry x="110" y="110" width="20" height="20" as="geometry" />
        </mxCell>
        <mxCell id="PWnDcDmy1SN2u1ibr4in-60" value="" style="ellipse;whiteSpace=wrap;html=1;aspect=fixed;fillColor=#f8cecc;strokeColor=#b85450;" parent="1" vertex="1">
          <mxGeometry x="190" y="110" width="20" height="20" as="geometry" />
        </mxCell>
        <mxCell id="PWnDcDmy1SN2u1ibr4in-61" value="" style="ellipse;whiteSpace=wrap;html=1;aspect=fixed;fillColor=#f8cecc;strokeColor=#b85450;" parent="1" vertex="1">
          <mxGeometry x="270" y="110" width="20" height="20" as="geometry" />
        </mxCell>
        <mxCell id="PWnDcDmy1SN2u1ibr4in-62" value="" style="ellipse;whiteSpace=wrap;html=1;aspect=fixed;fillColor=#f8cecc;strokeColor=#b85450;" parent="1" vertex="1">
          <mxGeometry x="350" y="110" width="20" height="20" as="geometry" />
        </mxCell>
        <mxCell id="PWnDcDmy1SN2u1ibr4in-63" value="" style="ellipse;whiteSpace=wrap;html=1;aspect=fixed;fillColor=#f8cecc;strokeColor=#b85450;" parent="1" vertex="1">
          <mxGeometry x="430" y="110" width="20" height="20" as="geometry" />
        </mxCell>
        <mxCell id="PWnDcDmy1SN2u1ibr4in-64" value="" style="ellipse;whiteSpace=wrap;html=1;aspect=fixed;fillColor=#f8cecc;strokeColor=#b85450;" parent="1" vertex="1">
          <mxGeometry x="510" y="110" width="20" height="20" as="geometry" />
        </mxCell>
        <mxCell id="PWnDcDmy1SN2u1ibr4in-65" value="" style="ellipse;whiteSpace=wrap;html=1;aspect=fixed;fillColor=#f8cecc;strokeColor=#b85450;" parent="1" vertex="1">
          <mxGeometry x="630" y="110" width="20" height="20" as="geometry" />
        </mxCell>
        <mxCell id="PWnDcDmy1SN2u1ibr4in-66" value="" style="ellipse;whiteSpace=wrap;html=1;aspect=fixed;fillColor=#f8cecc;strokeColor=#b85450;" parent="1" vertex="1">
          <mxGeometry x="670" y="110" width="20" height="20" as="geometry" />
        </mxCell>
        <mxCell id="PWnDcDmy1SN2u1ibr4in-68" value="" style="ellipse;whiteSpace=wrap;html=1;aspect=fixed;fillColor=#f8cecc;strokeColor=#b85450;" parent="1" vertex="1">
          <mxGeometry x="590" y="110" width="20" height="20" as="geometry" />
        </mxCell>
        <mxCell id="PWnDcDmy1SN2u1ibr4in-69" value="" style="ellipse;whiteSpace=wrap;html=1;aspect=fixed;fillColor=#f8cecc;strokeColor=#b85450;" parent="1" vertex="1">
          <mxGeometry x="550" y="110" width="20" height="20" as="geometry" />
        </mxCell>
        <mxCell id="PWnDcDmy1SN2u1ibr4in-72" value="begin1" style="text;html=1;align=center;verticalAlign=middle;resizable=0;points=[];autosize=1;strokeColor=none;fillColor=none;" parent="1" vertex="1">
          <mxGeometry x="20" y="240" width="60" height="30" as="geometry" />
        </mxCell>
        <mxCell id="PWnDcDmy1SN2u1ibr4in-73" value="end1" style="text;html=1;align=center;verticalAlign=middle;resizable=0;points=[];autosize=1;strokeColor=none;fillColor=none;" parent="1" vertex="1">
          <mxGeometry x="270" y="242" width="50" height="30" as="geometry" />
        </mxCell>
        <mxCell id="PWnDcDmy1SN2u1ibr4in-74" value="inf" style="rounded=0;whiteSpace=wrap;html=1;fillColor=none;strokeColor=#00FF00;verticalAlign=bottom;labelPosition=center;verticalLabelPosition=top;align=center;fontColor=#009900;" parent="1" vertex="1">
          <mxGeometry x="65" y="145" width="30" height="30" as="geometry" />
        </mxCell>
        <mxCell id="PWnDcDmy1SN2u1ibr4in-75" value="sup" style="rounded=0;whiteSpace=wrap;html=1;fillColor=none;strokeColor=#00FF00;verticalAlign=bottom;labelPosition=center;verticalLabelPosition=top;align=center;fontColor=#009900;" parent="1" vertex="1">
          <mxGeometry x="216" y="185" width="30" height="30" as="geometry" />
        </mxCell>
        <mxCell id="PWnDcDmy1SN2u1ibr4in-78" value="ref_first" style="rounded=0;whiteSpace=wrap;html=1;fillColor=none;strokeColor=#00FF00;verticalAlign=bottom;labelPosition=center;verticalLabelPosition=top;align=center;fontColor=#009900;" parent="1" vertex="1">
          <mxGeometry x="105" y="105" width="30" height="30" as="geometry" />
        </mxCell>
        <mxCell id="PWnDcDmy1SN2u1ibr4in-79" value="ref_last" style="rounded=0;whiteSpace=wrap;html=1;fillColor=none;strokeColor=#00FF00;verticalAlign=bottom;labelPosition=center;verticalLabelPosition=top;align=center;fontColor=#009900;" parent="1" vertex="1">
          <mxGeometry x="185" y="105" width="30" height="30" as="geometry" />
        </mxCell>
        <mxCell id="PWnDcDmy1SN2u1ibr4in-126" value="" style="rounded=0;whiteSpace=wrap;html=1;fillColor=none;strokeColor=#FF1010;" parent="1" vertex="1">
          <mxGeometry x="210" y="302" width="250" height="160" as="geometry" />
        </mxCell>
        <mxCell id="PWnDcDmy1SN2u1ibr4in-127" value="" style="endArrow=classic;html=1;rounded=0;endFill=1;" parent="1" edge="1">
          <mxGeometry width="50" height="50" relative="1" as="geometry">
            <mxPoint x="40" y="340" as="sourcePoint" />
            <mxPoint x="720" y="340" as="targetPoint" />
          </mxGeometry>
        </mxCell>
        <mxCell id="PWnDcDmy1SN2u1ibr4in-128" value="ref" style="edgeLabel;html=1;align=center;verticalAlign=middle;resizable=0;points=[];" parent="PWnDcDmy1SN2u1ibr4in-127" vertex="1" connectable="0">
          <mxGeometry x="0.9826" y="-2" relative="1" as="geometry">
            <mxPoint x="16" y="8" as="offset" />
          </mxGeometry>
        </mxCell>
        <mxCell id="PWnDcDmy1SN2u1ibr4in-129" value="" style="endArrow=classic;html=1;rounded=0;endFill=1;" parent="1" edge="1">
          <mxGeometry width="50" height="50" relative="1" as="geometry">
            <mxPoint x="40" y="380" as="sourcePoint" />
            <mxPoint x="720" y="380" as="targetPoint" />
          </mxGeometry>
        </mxCell>
        <mxCell id="PWnDcDmy1SN2u1ibr4in-130" value="a" style="edgeLabel;html=1;align=center;verticalAlign=middle;resizable=0;points=[];" parent="PWnDcDmy1SN2u1ibr4in-129" vertex="1" connectable="0">
          <mxGeometry x="0.97" y="2" relative="1" as="geometry">
            <mxPoint x="20" y="12" as="offset" />
          </mxGeometry>
        </mxCell>
        <mxCell id="PWnDcDmy1SN2u1ibr4in-131" value="" style="endArrow=classic;html=1;rounded=0;endFill=1;" parent="1" edge="1">
          <mxGeometry width="50" height="50" relative="1" as="geometry">
            <mxPoint x="40" y="420" as="sourcePoint" />
            <mxPoint x="720" y="420" as="targetPoint" />
          </mxGeometry>
        </mxCell>
        <mxCell id="PWnDcDmy1SN2u1ibr4in-132" value="b" style="edgeLabel;html=1;align=center;verticalAlign=middle;resizable=0;points=[];" parent="PWnDcDmy1SN2u1ibr4in-131" vertex="1" connectable="0">
          <mxGeometry x="0.9756" y="2" relative="1" as="geometry">
            <mxPoint x="17" y="11" as="offset" />
          </mxGeometry>
        </mxCell>
        <mxCell id="PWnDcDmy1SN2u1ibr4in-133" value="" style="ellipse;whiteSpace=wrap;html=1;aspect=fixed;fillColor=#dae8fc;strokeColor=#6c8ebf;" parent="1" vertex="1">
          <mxGeometry x="60" y="410" width="20" height="20" as="geometry" />
        </mxCell>
        <mxCell id="PWnDcDmy1SN2u1ibr4in-134" value="" style="ellipse;whiteSpace=wrap;html=1;aspect=fixed;fillColor=#dae8fc;strokeColor=#6c8ebf;" parent="1" vertex="1">
          <mxGeometry x="221" y="410" width="20" height="20" as="geometry" />
        </mxCell>
        <mxCell id="PWnDcDmy1SN2u1ibr4in-135" value="" style="ellipse;whiteSpace=wrap;html=1;aspect=fixed;fillColor=#dae8fc;strokeColor=#6c8ebf;" parent="1" vertex="1">
          <mxGeometry x="310" y="410" width="20" height="20" as="geometry" />
        </mxCell>
        <mxCell id="PWnDcDmy1SN2u1ibr4in-136" value="" style="ellipse;whiteSpace=wrap;html=1;aspect=fixed;fillColor=#dae8fc;strokeColor=#6c8ebf;" parent="1" vertex="1">
          <mxGeometry x="430" y="410" width="20" height="20" as="geometry" />
        </mxCell>
        <mxCell id="PWnDcDmy1SN2u1ibr4in-137" value="" style="ellipse;whiteSpace=wrap;html=1;aspect=fixed;fillColor=#dae8fc;strokeColor=#6c8ebf;" parent="1" vertex="1">
          <mxGeometry x="550" y="410" width="20" height="20" as="geometry" />
        </mxCell>
        <mxCell id="PWnDcDmy1SN2u1ibr4in-138" value="" style="ellipse;whiteSpace=wrap;html=1;aspect=fixed;fillColor=#dae8fc;strokeColor=#6c8ebf;" parent="1" vertex="1">
          <mxGeometry x="670" y="410" width="20" height="20" as="geometry" />
        </mxCell>
        <mxCell id="PWnDcDmy1SN2u1ibr4in-139" value="" style="ellipse;whiteSpace=wrap;html=1;aspect=fixed;fillColor=#d5e8d4;strokeColor=#82b366;" parent="1" vertex="1">
          <mxGeometry x="70" y="370" width="20" height="20" as="geometry" />
        </mxCell>
        <mxCell id="PWnDcDmy1SN2u1ibr4in-140" value="" style="ellipse;whiteSpace=wrap;html=1;aspect=fixed;fillColor=#d5e8d4;strokeColor=#82b366;" parent="1" vertex="1">
          <mxGeometry x="110" y="370" width="20" height="20" as="geometry" />
        </mxCell>
        <mxCell id="PWnDcDmy1SN2u1ibr4in-141" value="" style="ellipse;whiteSpace=wrap;html=1;aspect=fixed;fillColor=#d5e8d4;strokeColor=#82b366;" parent="1" vertex="1">
          <mxGeometry x="190" y="370" width="20" height="20" as="geometry" />
        </mxCell>
        <mxCell id="PWnDcDmy1SN2u1ibr4in-142" value="" style="ellipse;whiteSpace=wrap;html=1;aspect=fixed;fillColor=#d5e8d4;strokeColor=#82b366;" parent="1" vertex="1">
          <mxGeometry x="250" y="370" width="20" height="20" as="geometry" />
        </mxCell>
        <mxCell id="PWnDcDmy1SN2u1ibr4in-143" value="" style="ellipse;whiteSpace=wrap;html=1;aspect=fixed;fillColor=#d5e8d4;strokeColor=#82b366;" parent="1" vertex="1">
          <mxGeometry x="310" y="370" width="20" height="20" as="geometry" />
        </mxCell>
        <mxCell id="PWnDcDmy1SN2u1ibr4in-144" value="" style="ellipse;whiteSpace=wrap;html=1;aspect=fixed;fillColor=#d5e8d4;strokeColor=#82b366;" parent="1" vertex="1">
          <mxGeometry x="390" y="370" width="20" height="20" as="geometry" />
        </mxCell>
        <mxCell id="PWnDcDmy1SN2u1ibr4in-145" value="" style="ellipse;whiteSpace=wrap;html=1;aspect=fixed;fillColor=#d5e8d4;strokeColor=#82b366;" parent="1" vertex="1">
          <mxGeometry x="470" y="370" width="20" height="20" as="geometry" />
        </mxCell>
        <mxCell id="PWnDcDmy1SN2u1ibr4in-146" value="" style="ellipse;whiteSpace=wrap;html=1;aspect=fixed;fillColor=#d5e8d4;strokeColor=#82b366;" parent="1" vertex="1">
          <mxGeometry x="550" y="370" width="20" height="20" as="geometry" />
        </mxCell>
        <mxCell id="PWnDcDmy1SN2u1ibr4in-147" value="" style="ellipse;whiteSpace=wrap;html=1;aspect=fixed;fillColor=#d5e8d4;strokeColor=#82b366;" parent="1" vertex="1">
          <mxGeometry x="590" y="370" width="20" height="20" as="geometry" />
        </mxCell>
        <mxCell id="PWnDcDmy1SN2u1ibr4in-148" value="" style="ellipse;whiteSpace=wrap;html=1;aspect=fixed;fillColor=#d5e8d4;strokeColor=#82b366;" parent="1" vertex="1">
          <mxGeometry x="640" y="370" width="20" height="20" as="geometry" />
        </mxCell>
        <mxCell id="PWnDcDmy1SN2u1ibr4in-149" value="" style="ellipse;whiteSpace=wrap;html=1;aspect=fixed;fillColor=#f5f5f5;strokeColor=#666666;fontColor=#333333;" parent="1" vertex="1">
          <mxGeometry x="60" y="330" width="20" height="20" as="geometry" />
        </mxCell>
        <mxCell id="PWnDcDmy1SN2u1ibr4in-150" value="" style="ellipse;whiteSpace=wrap;html=1;aspect=fixed;fillColor=#f5f5f5;strokeColor=#666666;fontColor=#333333;" parent="1" vertex="1">
          <mxGeometry x="110" y="330" width="20" height="20" as="geometry" />
        </mxCell>
        <mxCell id="PWnDcDmy1SN2u1ibr4in-151" value="" style="ellipse;whiteSpace=wrap;html=1;aspect=fixed;fillColor=#f5f5f5;strokeColor=#666666;fontColor=#333333;" parent="1" vertex="1">
          <mxGeometry x="190" y="330" width="20" height="20" as="geometry" />
        </mxCell>
        <mxCell id="PWnDcDmy1SN2u1ibr4in-152" value="" style="ellipse;whiteSpace=wrap;html=1;aspect=fixed;fillColor=#f8cecc;strokeColor=#b85450;" parent="1" vertex="1">
          <mxGeometry x="270" y="330" width="20" height="20" as="geometry" />
        </mxCell>
        <mxCell id="PWnDcDmy1SN2u1ibr4in-153" value="" style="ellipse;whiteSpace=wrap;html=1;aspect=fixed;fillColor=#f8cecc;strokeColor=#b85450;" parent="1" vertex="1">
          <mxGeometry x="350" y="330" width="20" height="20" as="geometry" />
        </mxCell>
        <mxCell id="PWnDcDmy1SN2u1ibr4in-154" value="" style="ellipse;whiteSpace=wrap;html=1;aspect=fixed;fillColor=#f8cecc;strokeColor=#b85450;" parent="1" vertex="1">
          <mxGeometry x="430" y="330" width="20" height="20" as="geometry" />
        </mxCell>
        <mxCell id="PWnDcDmy1SN2u1ibr4in-155" value="" style="ellipse;whiteSpace=wrap;html=1;aspect=fixed;fillColor=#f8cecc;strokeColor=#b85450;" parent="1" vertex="1">
          <mxGeometry x="510" y="330" width="20" height="20" as="geometry" />
        </mxCell>
        <mxCell id="PWnDcDmy1SN2u1ibr4in-156" value="" style="ellipse;whiteSpace=wrap;html=1;aspect=fixed;fillColor=#f8cecc;strokeColor=#b85450;" parent="1" vertex="1">
          <mxGeometry x="630" y="330" width="20" height="20" as="geometry" />
        </mxCell>
        <mxCell id="PWnDcDmy1SN2u1ibr4in-157" value="" style="ellipse;whiteSpace=wrap;html=1;aspect=fixed;fillColor=#f8cecc;strokeColor=#b85450;" parent="1" vertex="1">
          <mxGeometry x="670" y="330" width="20" height="20" as="geometry" />
        </mxCell>
        <mxCell id="PWnDcDmy1SN2u1ibr4in-158" value="" style="ellipse;whiteSpace=wrap;html=1;aspect=fixed;fillColor=#f8cecc;strokeColor=#b85450;" parent="1" vertex="1">
          <mxGeometry x="590" y="330" width="20" height="20" as="geometry" />
        </mxCell>
        <mxCell id="PWnDcDmy1SN2u1ibr4in-159" value="" style="ellipse;whiteSpace=wrap;html=1;aspect=fixed;fillColor=#f8cecc;strokeColor=#b85450;" parent="1" vertex="1">
          <mxGeometry x="550" y="330" width="20" height="20" as="geometry" />
        </mxCell>
        <mxCell id="PWnDcDmy1SN2u1ibr4in-160" value="begin2 = sup ?&lt;br&gt;ne pas bon !&lt;div&gt;voir ci-dessous&lt;/div&gt;" style="text;html=1;align=center;verticalAlign=middle;resizable=0;points=[];autosize=1;strokeColor=none;fillColor=none;" parent="1" vertex="1">
          <mxGeometry x="160" y="462" width="100" height="60" as="geometry" />
        </mxCell>
        <mxCell id="PWnDcDmy1SN2u1ibr4in-161" value="end2" style="text;html=1;align=center;verticalAlign=middle;resizable=0;points=[];autosize=1;strokeColor=none;fillColor=none;" parent="1" vertex="1">
          <mxGeometry x="415" y="462" width="50" height="30" as="geometry" />
        </mxCell>
        <mxCell id="PWnDcDmy1SN2u1ibr4in-170" value="" style="rounded=0;whiteSpace=wrap;html=1;fillColor=none;strokeColor=#FF1010;verticalAlign=top;labelPosition=center;verticalLabelPosition=bottom;align=center;fontColor=#009900;" parent="1" vertex="1">
          <mxGeometry x="216" y="405" width="30" height="30" as="geometry" />
        </mxCell>
        <mxCell id="PWnDcDmy1SN2u1ibr4in-172" value="inf" style="rounded=0;whiteSpace=wrap;html=1;fillColor=none;strokeColor=#00FF00;verticalAlign=bottom;labelPosition=center;verticalLabelPosition=top;align=center;fontColor=#009900;" parent="1" vertex="1">
          <mxGeometry x="245" y="365" width="30" height="30" as="geometry" />
        </mxCell>
        <mxCell id="PWnDcDmy1SN2u1ibr4in-173" value="sup" style="rounded=0;whiteSpace=wrap;html=1;fillColor=none;strokeColor=#00FF00;verticalAlign=bottom;labelPosition=center;verticalLabelPosition=top;align=center;fontColor=#009900;" parent="1" vertex="1">
          <mxGeometry x="385" y="365" width="30" height="30" as="geometry" />
        </mxCell>
        <mxCell id="PWnDcDmy1SN2u1ibr4in-174" value="ref_first" style="rounded=0;whiteSpace=wrap;html=1;fillColor=none;strokeColor=#00FF00;verticalAlign=bottom;labelPosition=center;verticalLabelPosition=top;align=center;fontColor=#009900;" parent="1" vertex="1">
          <mxGeometry x="265" y="325" width="30" height="30" as="geometry" />
        </mxCell>
        <mxCell id="PWnDcDmy1SN2u1ibr4in-175" value="ref_last" style="rounded=0;whiteSpace=wrap;html=1;fillColor=none;strokeColor=#00FF00;verticalAlign=bottom;labelPosition=center;verticalLabelPosition=top;align=center;fontColor=#009900;" parent="1" vertex="1">
          <mxGeometry x="345" y="325" width="30" height="30" as="geometry" />
        </mxCell>
        <mxCell id="PWnDcDmy1SN2u1ibr4in-178" value="" style="rounded=0;whiteSpace=wrap;html=1;fillColor=none;strokeColor=#FF1010;" parent="1" vertex="1">
          <mxGeometry x="50" y="560" width="250" height="160" as="geometry" />
        </mxCell>
        <mxCell id="PWnDcDmy1SN2u1ibr4in-179" value="" style="endArrow=classic;html=1;rounded=0;endFill=1;" parent="1" edge="1">
          <mxGeometry width="50" height="50" relative="1" as="geometry">
            <mxPoint x="40" y="600" as="sourcePoint" />
            <mxPoint x="720" y="600" as="targetPoint" />
          </mxGeometry>
        </mxCell>
        <mxCell id="PWnDcDmy1SN2u1ibr4in-180" value="ref" style="edgeLabel;html=1;align=center;verticalAlign=middle;resizable=0;points=[];" parent="PWnDcDmy1SN2u1ibr4in-179" vertex="1" connectable="0">
          <mxGeometry x="0.9826" y="-2" relative="1" as="geometry">
            <mxPoint x="16" y="8" as="offset" />
          </mxGeometry>
        </mxCell>
        <mxCell id="PWnDcDmy1SN2u1ibr4in-181" value="" style="endArrow=classic;html=1;rounded=0;endFill=1;" parent="1" edge="1">
          <mxGeometry width="50" height="50" relative="1" as="geometry">
            <mxPoint x="40" y="640" as="sourcePoint" />
            <mxPoint x="720" y="640" as="targetPoint" />
          </mxGeometry>
        </mxCell>
        <mxCell id="PWnDcDmy1SN2u1ibr4in-182" value="a" style="edgeLabel;html=1;align=center;verticalAlign=middle;resizable=0;points=[];" parent="PWnDcDmy1SN2u1ibr4in-181" vertex="1" connectable="0">
          <mxGeometry x="0.97" y="2" relative="1" as="geometry">
            <mxPoint x="20" y="12" as="offset" />
          </mxGeometry>
        </mxCell>
        <mxCell id="PWnDcDmy1SN2u1ibr4in-183" value="" style="endArrow=classic;html=1;rounded=0;endFill=1;" parent="1" edge="1">
          <mxGeometry width="50" height="50" relative="1" as="geometry">
            <mxPoint x="40" y="680" as="sourcePoint" />
            <mxPoint x="720" y="680" as="targetPoint" />
          </mxGeometry>
        </mxCell>
        <mxCell id="PWnDcDmy1SN2u1ibr4in-184" value="b" style="edgeLabel;html=1;align=center;verticalAlign=middle;resizable=0;points=[];" parent="PWnDcDmy1SN2u1ibr4in-183" vertex="1" connectable="0">
          <mxGeometry x="0.9756" y="2" relative="1" as="geometry">
            <mxPoint x="17" y="11" as="offset" />
          </mxGeometry>
        </mxCell>
        <mxCell id="PWnDcDmy1SN2u1ibr4in-185" value="" style="ellipse;whiteSpace=wrap;html=1;aspect=fixed;fillColor=#dae8fc;strokeColor=#6c8ebf;" parent="1" vertex="1">
          <mxGeometry x="60" y="670" width="20" height="20" as="geometry" />
        </mxCell>
        <mxCell id="PWnDcDmy1SN2u1ibr4in-186" value="" style="ellipse;whiteSpace=wrap;html=1;aspect=fixed;fillColor=#dae8fc;strokeColor=#6c8ebf;" parent="1" vertex="1">
          <mxGeometry x="221" y="670" width="20" height="20" as="geometry" />
        </mxCell>
        <mxCell id="PWnDcDmy1SN2u1ibr4in-187" value="" style="ellipse;whiteSpace=wrap;html=1;aspect=fixed;fillColor=#dae8fc;strokeColor=#6c8ebf;" parent="1" vertex="1">
          <mxGeometry x="310" y="670" width="20" height="20" as="geometry" />
        </mxCell>
        <mxCell id="PWnDcDmy1SN2u1ibr4in-188" value="" style="ellipse;whiteSpace=wrap;html=1;aspect=fixed;fillColor=#dae8fc;strokeColor=#6c8ebf;" parent="1" vertex="1">
          <mxGeometry x="430" y="670" width="20" height="20" as="geometry" />
        </mxCell>
        <mxCell id="PWnDcDmy1SN2u1ibr4in-189" value="" style="ellipse;whiteSpace=wrap;html=1;aspect=fixed;fillColor=#dae8fc;strokeColor=#6c8ebf;" parent="1" vertex="1">
          <mxGeometry x="550" y="670" width="20" height="20" as="geometry" />
        </mxCell>
        <mxCell id="PWnDcDmy1SN2u1ibr4in-190" value="" style="ellipse;whiteSpace=wrap;html=1;aspect=fixed;fillColor=#dae8fc;strokeColor=#6c8ebf;" parent="1" vertex="1">
          <mxGeometry x="670" y="670" width="20" height="20" as="geometry" />
        </mxCell>
        <mxCell id="PWnDcDmy1SN2u1ibr4in-191" value="" style="ellipse;whiteSpace=wrap;html=1;aspect=fixed;fillColor=#d5e8d4;strokeColor=#82b366;" parent="1" vertex="1">
          <mxGeometry x="70" y="630" width="20" height="20" as="geometry" />
        </mxCell>
        <mxCell id="PWnDcDmy1SN2u1ibr4in-192" value="" style="ellipse;whiteSpace=wrap;html=1;aspect=fixed;fillColor=#d5e8d4;strokeColor=#82b366;" parent="1" vertex="1">
          <mxGeometry x="110" y="630" width="20" height="20" as="geometry" />
        </mxCell>
        <mxCell id="PWnDcDmy1SN2u1ibr4in-193" value="" style="ellipse;whiteSpace=wrap;html=1;aspect=fixed;fillColor=#d5e8d4;strokeColor=#82b366;" parent="1" vertex="1">
          <mxGeometry x="190" y="630" width="20" height="20" as="geometry" />
        </mxCell>
        <mxCell id="PWnDcDmy1SN2u1ibr4in-194" value="" style="ellipse;whiteSpace=wrap;html=1;aspect=fixed;fillColor=#d5e8d4;strokeColor=#82b366;" parent="1" vertex="1">
          <mxGeometry x="250" y="630" width="20" height="20" as="geometry" />
        </mxCell>
        <mxCell id="PWnDcDmy1SN2u1ibr4in-195" value="" style="ellipse;whiteSpace=wrap;html=1;aspect=fixed;fillColor=#d5e8d4;strokeColor=#82b366;" parent="1" vertex="1">
          <mxGeometry x="310" y="630" width="20" height="20" as="geometry" />
        </mxCell>
        <mxCell id="PWnDcDmy1SN2u1ibr4in-196" value="" style="ellipse;whiteSpace=wrap;html=1;aspect=fixed;fillColor=#d5e8d4;strokeColor=#82b366;" parent="1" vertex="1">
          <mxGeometry x="390" y="630" width="20" height="20" as="geometry" />
        </mxCell>
        <mxCell id="PWnDcDmy1SN2u1ibr4in-197" value="" style="ellipse;whiteSpace=wrap;html=1;aspect=fixed;fillColor=#d5e8d4;strokeColor=#82b366;" parent="1" vertex="1">
          <mxGeometry x="470" y="630" width="20" height="20" as="geometry" />
        </mxCell>
        <mxCell id="PWnDcDmy1SN2u1ibr4in-198" value="" style="ellipse;whiteSpace=wrap;html=1;aspect=fixed;fillColor=#d5e8d4;strokeColor=#82b366;" parent="1" vertex="1">
          <mxGeometry x="550" y="630" width="20" height="20" as="geometry" />
        </mxCell>
        <mxCell id="PWnDcDmy1SN2u1ibr4in-199" value="" style="ellipse;whiteSpace=wrap;html=1;aspect=fixed;fillColor=#d5e8d4;strokeColor=#82b366;" parent="1" vertex="1">
          <mxGeometry x="590" y="630" width="20" height="20" as="geometry" />
        </mxCell>
        <mxCell id="PWnDcDmy1SN2u1ibr4in-200" value="" style="ellipse;whiteSpace=wrap;html=1;aspect=fixed;fillColor=#d5e8d4;strokeColor=#82b366;" parent="1" vertex="1">
          <mxGeometry x="640" y="630" width="20" height="20" as="geometry" />
        </mxCell>
        <mxCell id="PWnDcDmy1SN2u1ibr4in-201" value="" style="ellipse;whiteSpace=wrap;html=1;aspect=fixed;fillColor=#f8cecc;strokeColor=#b85450;" parent="1" vertex="1">
          <mxGeometry x="60" y="590" width="20" height="20" as="geometry" />
        </mxCell>
        <mxCell id="PWnDcDmy1SN2u1ibr4in-202" value="" style="ellipse;whiteSpace=wrap;html=1;aspect=fixed;fillColor=#f8cecc;strokeColor=#b85450;" parent="1" vertex="1">
          <mxGeometry x="110" y="590" width="20" height="20" as="geometry" />
        </mxCell>
        <mxCell id="PWnDcDmy1SN2u1ibr4in-203" value="" style="ellipse;whiteSpace=wrap;html=1;aspect=fixed;fillColor=#f8cecc;strokeColor=#b85450;" parent="1" vertex="1">
          <mxGeometry x="190" y="590" width="20" height="20" as="geometry" />
        </mxCell>
        <mxCell id="PWnDcDmy1SN2u1ibr4in-204" value="" style="ellipse;whiteSpace=wrap;html=1;aspect=fixed;fillColor=#f8cecc;strokeColor=#b85450;" parent="1" vertex="1">
          <mxGeometry x="270" y="590" width="20" height="20" as="geometry" />
        </mxCell>
        <mxCell id="PWnDcDmy1SN2u1ibr4in-205" value="" style="ellipse;whiteSpace=wrap;html=1;aspect=fixed;fillColor=#f8cecc;strokeColor=#b85450;" parent="1" vertex="1">
          <mxGeometry x="350" y="590" width="20" height="20" as="geometry" />
        </mxCell>
        <mxCell id="PWnDcDmy1SN2u1ibr4in-206" value="" style="ellipse;whiteSpace=wrap;html=1;aspect=fixed;fillColor=#f8cecc;strokeColor=#b85450;" parent="1" vertex="1">
          <mxGeometry x="430" y="590" width="20" height="20" as="geometry" />
        </mxCell>
        <mxCell id="PWnDcDmy1SN2u1ibr4in-207" value="" style="ellipse;whiteSpace=wrap;html=1;aspect=fixed;fillColor=#f8cecc;strokeColor=#b85450;" parent="1" vertex="1">
          <mxGeometry x="510" y="590" width="20" height="20" as="geometry" />
        </mxCell>
        <mxCell id="PWnDcDmy1SN2u1ibr4in-208" value="" style="ellipse;whiteSpace=wrap;html=1;aspect=fixed;fillColor=#f8cecc;strokeColor=#b85450;" parent="1" vertex="1">
          <mxGeometry x="630" y="590" width="20" height="20" as="geometry" />
        </mxCell>
        <mxCell id="PWnDcDmy1SN2u1ibr4in-209" value="" style="ellipse;whiteSpace=wrap;html=1;aspect=fixed;fillColor=#f8cecc;strokeColor=#b85450;" parent="1" vertex="1">
          <mxGeometry x="670" y="590" width="20" height="20" as="geometry" />
        </mxCell>
        <mxCell id="PWnDcDmy1SN2u1ibr4in-210" value="" style="ellipse;whiteSpace=wrap;html=1;aspect=fixed;fillColor=#f8cecc;strokeColor=#b85450;" parent="1" vertex="1">
          <mxGeometry x="590" y="590" width="20" height="20" as="geometry" />
        </mxCell>
        <mxCell id="PWnDcDmy1SN2u1ibr4in-211" value="" style="ellipse;whiteSpace=wrap;html=1;aspect=fixed;fillColor=#f8cecc;strokeColor=#b85450;" parent="1" vertex="1">
          <mxGeometry x="550" y="590" width="20" height="20" as="geometry" />
        </mxCell>
        <mxCell id="PWnDcDmy1SN2u1ibr4in-212" value="begin1" style="text;html=1;align=center;verticalAlign=middle;resizable=0;points=[];autosize=1;strokeColor=none;fillColor=none;" parent="1" vertex="1">
          <mxGeometry x="20" y="720" width="60" height="30" as="geometry" />
        </mxCell>
        <mxCell id="PWnDcDmy1SN2u1ibr4in-213" value="end1" style="text;html=1;align=center;verticalAlign=middle;resizable=0;points=[];autosize=1;strokeColor=none;fillColor=none;" parent="1" vertex="1">
          <mxGeometry x="270" y="722" width="50" height="30" as="geometry" />
        </mxCell>
        <mxCell id="PWnDcDmy1SN2u1ibr4in-214" value="inf" style="rounded=0;whiteSpace=wrap;html=1;fillColor=none;strokeColor=#00FF00;verticalAlign=bottom;labelPosition=center;verticalLabelPosition=top;align=center;fontColor=#009900;" parent="1" vertex="1">
          <mxGeometry x="65" y="625" width="30" height="30" as="geometry" />
        </mxCell>
        <mxCell id="PWnDcDmy1SN2u1ibr4in-215" value="sup" style="rounded=0;whiteSpace=wrap;html=1;fillColor=none;strokeColor=#00FF00;verticalAlign=bottom;labelPosition=center;verticalLabelPosition=top;align=center;fontColor=#009900;" parent="1" vertex="1">
          <mxGeometry x="216" y="665" width="30" height="30" as="geometry" />
        </mxCell>
        <mxCell id="PWnDcDmy1SN2u1ibr4in-216" value="ref_first" style="rounded=0;whiteSpace=wrap;html=1;fillColor=none;strokeColor=#00FF00;verticalAlign=bottom;labelPosition=center;verticalLabelPosition=top;align=center;fontColor=#009900;" parent="1" vertex="1">
          <mxGeometry x="105" y="585" width="30" height="30" as="geometry" />
        </mxCell>
        <mxCell id="PWnDcDmy1SN2u1ibr4in-217" value="ref_last" style="rounded=0;whiteSpace=wrap;html=1;fillColor=none;strokeColor=#00FF00;verticalAlign=bottom;labelPosition=center;verticalLabelPosition=top;align=center;fontColor=#009900;" parent="1" vertex="1">
          <mxGeometry x="185" y="585" width="30" height="30" as="geometry" />
        </mxCell>
        <mxCell id="PWnDcDmy1SN2u1ibr4in-218" value="" style="rounded=0;whiteSpace=wrap;html=1;fillColor=none;strokeColor=#FF1010;" parent="1" vertex="1">
          <mxGeometry x="180" y="782" width="280" height="160" as="geometry" />
        </mxCell>
        <mxCell id="PWnDcDmy1SN2u1ibr4in-219" value="" style="endArrow=classic;html=1;rounded=0;endFill=1;" parent="1" edge="1">
          <mxGeometry width="50" height="50" relative="1" as="geometry">
            <mxPoint x="40" y="820" as="sourcePoint" />
            <mxPoint x="720" y="820" as="targetPoint" />
          </mxGeometry>
        </mxCell>
        <mxCell id="PWnDcDmy1SN2u1ibr4in-220" value="ref" style="edgeLabel;html=1;align=center;verticalAlign=middle;resizable=0;points=[];" parent="PWnDcDmy1SN2u1ibr4in-219" vertex="1" connectable="0">
          <mxGeometry x="0.9826" y="-2" relative="1" as="geometry">
            <mxPoint x="16" y="8" as="offset" />
          </mxGeometry>
        </mxCell>
        <mxCell id="PWnDcDmy1SN2u1ibr4in-221" value="" style="endArrow=classic;html=1;rounded=0;endFill=1;" parent="1" edge="1">
          <mxGeometry width="50" height="50" relative="1" as="geometry">
            <mxPoint x="40" y="860" as="sourcePoint" />
            <mxPoint x="720" y="860" as="targetPoint" />
          </mxGeometry>
        </mxCell>
        <mxCell id="PWnDcDmy1SN2u1ibr4in-222" value="a" style="edgeLabel;html=1;align=center;verticalAlign=middle;resizable=0;points=[];" parent="PWnDcDmy1SN2u1ibr4in-221" vertex="1" connectable="0">
          <mxGeometry x="0.97" y="2" relative="1" as="geometry">
            <mxPoint x="20" y="12" as="offset" />
          </mxGeometry>
        </mxCell>
        <mxCell id="PWnDcDmy1SN2u1ibr4in-223" value="" style="endArrow=classic;html=1;rounded=0;endFill=1;" parent="1" edge="1">
          <mxGeometry width="50" height="50" relative="1" as="geometry">
            <mxPoint x="40" y="900" as="sourcePoint" />
            <mxPoint x="720" y="900" as="targetPoint" />
          </mxGeometry>
        </mxCell>
        <mxCell id="PWnDcDmy1SN2u1ibr4in-224" value="b" style="edgeLabel;html=1;align=center;verticalAlign=middle;resizable=0;points=[];" parent="PWnDcDmy1SN2u1ibr4in-223" vertex="1" connectable="0">
          <mxGeometry x="0.9756" y="2" relative="1" as="geometry">
            <mxPoint x="17" y="11" as="offset" />
          </mxGeometry>
        </mxCell>
        <mxCell id="PWnDcDmy1SN2u1ibr4in-225" value="" style="ellipse;whiteSpace=wrap;html=1;aspect=fixed;fillColor=#dae8fc;strokeColor=#6c8ebf;" parent="1" vertex="1">
          <mxGeometry x="60" y="890" width="20" height="20" as="geometry" />
        </mxCell>
        <mxCell id="PWnDcDmy1SN2u1ibr4in-226" value="" style="ellipse;whiteSpace=wrap;html=1;aspect=fixed;fillColor=#dae8fc;strokeColor=#6c8ebf;" parent="1" vertex="1">
          <mxGeometry x="221" y="890" width="20" height="20" as="geometry" />
        </mxCell>
        <mxCell id="PWnDcDmy1SN2u1ibr4in-227" value="" style="ellipse;whiteSpace=wrap;html=1;aspect=fixed;fillColor=#dae8fc;strokeColor=#6c8ebf;" parent="1" vertex="1">
          <mxGeometry x="310" y="890" width="20" height="20" as="geometry" />
        </mxCell>
        <mxCell id="PWnDcDmy1SN2u1ibr4in-228" value="" style="ellipse;whiteSpace=wrap;html=1;aspect=fixed;fillColor=#dae8fc;strokeColor=#6c8ebf;" parent="1" vertex="1">
          <mxGeometry x="430" y="890" width="20" height="20" as="geometry" />
        </mxCell>
        <mxCell id="PWnDcDmy1SN2u1ibr4in-229" value="" style="ellipse;whiteSpace=wrap;html=1;aspect=fixed;fillColor=#dae8fc;strokeColor=#6c8ebf;" parent="1" vertex="1">
          <mxGeometry x="550" y="890" width="20" height="20" as="geometry" />
        </mxCell>
        <mxCell id="PWnDcDmy1SN2u1ibr4in-230" value="" style="ellipse;whiteSpace=wrap;html=1;aspect=fixed;fillColor=#dae8fc;strokeColor=#6c8ebf;" parent="1" vertex="1">
          <mxGeometry x="670" y="890" width="20" height="20" as="geometry" />
        </mxCell>
        <mxCell id="PWnDcDmy1SN2u1ibr4in-231" value="" style="ellipse;whiteSpace=wrap;html=1;aspect=fixed;fillColor=#d5e8d4;strokeColor=#82b366;" parent="1" vertex="1">
          <mxGeometry x="70" y="850" width="20" height="20" as="geometry" />
        </mxCell>
        <mxCell id="PWnDcDmy1SN2u1ibr4in-232" value="" style="ellipse;whiteSpace=wrap;html=1;aspect=fixed;fillColor=#d5e8d4;strokeColor=#82b366;" parent="1" vertex="1">
          <mxGeometry x="110" y="850" width="20" height="20" as="geometry" />
        </mxCell>
        <mxCell id="PWnDcDmy1SN2u1ibr4in-233" value="" style="ellipse;whiteSpace=wrap;html=1;aspect=fixed;fillColor=#d5e8d4;strokeColor=#82b366;" parent="1" vertex="1">
          <mxGeometry x="190" y="850" width="20" height="20" as="geometry" />
        </mxCell>
        <mxCell id="PWnDcDmy1SN2u1ibr4in-234" value="" style="ellipse;whiteSpace=wrap;html=1;aspect=fixed;fillColor=#d5e8d4;strokeColor=#82b366;" parent="1" vertex="1">
          <mxGeometry x="250" y="850" width="20" height="20" as="geometry" />
        </mxCell>
        <mxCell id="PWnDcDmy1SN2u1ibr4in-235" value="" style="ellipse;whiteSpace=wrap;html=1;aspect=fixed;fillColor=#d5e8d4;strokeColor=#82b366;" parent="1" vertex="1">
          <mxGeometry x="310" y="850" width="20" height="20" as="geometry" />
        </mxCell>
        <mxCell id="PWnDcDmy1SN2u1ibr4in-236" value="" style="ellipse;whiteSpace=wrap;html=1;aspect=fixed;fillColor=#d5e8d4;strokeColor=#82b366;" parent="1" vertex="1">
          <mxGeometry x="390" y="850" width="20" height="20" as="geometry" />
        </mxCell>
        <mxCell id="PWnDcDmy1SN2u1ibr4in-237" value="" style="ellipse;whiteSpace=wrap;html=1;aspect=fixed;fillColor=#d5e8d4;strokeColor=#82b366;" parent="1" vertex="1">
          <mxGeometry x="470" y="850" width="20" height="20" as="geometry" />
        </mxCell>
        <mxCell id="PWnDcDmy1SN2u1ibr4in-238" value="" style="ellipse;whiteSpace=wrap;html=1;aspect=fixed;fillColor=#d5e8d4;strokeColor=#82b366;" parent="1" vertex="1">
          <mxGeometry x="550" y="850" width="20" height="20" as="geometry" />
        </mxCell>
        <mxCell id="PWnDcDmy1SN2u1ibr4in-239" value="" style="ellipse;whiteSpace=wrap;html=1;aspect=fixed;fillColor=#d5e8d4;strokeColor=#82b366;" parent="1" vertex="1">
          <mxGeometry x="590" y="850" width="20" height="20" as="geometry" />
        </mxCell>
        <mxCell id="PWnDcDmy1SN2u1ibr4in-240" value="" style="ellipse;whiteSpace=wrap;html=1;aspect=fixed;fillColor=#d5e8d4;strokeColor=#82b366;" parent="1" vertex="1">
          <mxGeometry x="640" y="850" width="20" height="20" as="geometry" />
        </mxCell>
        <mxCell id="PWnDcDmy1SN2u1ibr4in-241" value="" style="ellipse;whiteSpace=wrap;html=1;aspect=fixed;fillColor=#f5f5f5;strokeColor=#666666;fontColor=#333333;" parent="1" vertex="1">
          <mxGeometry x="60" y="810" width="20" height="20" as="geometry" />
        </mxCell>
        <mxCell id="PWnDcDmy1SN2u1ibr4in-242" value="" style="ellipse;whiteSpace=wrap;html=1;aspect=fixed;fillColor=#f5f5f5;strokeColor=#666666;fontColor=#333333;" parent="1" vertex="1">
          <mxGeometry x="110" y="810" width="20" height="20" as="geometry" />
        </mxCell>
        <mxCell id="PWnDcDmy1SN2u1ibr4in-243" value="" style="ellipse;whiteSpace=wrap;html=1;aspect=fixed;fillColor=#f5f5f5;strokeColor=#666666;fontColor=#333333;" parent="1" vertex="1">
          <mxGeometry x="190" y="810" width="20" height="20" as="geometry" />
        </mxCell>
        <mxCell id="PWnDcDmy1SN2u1ibr4in-244" value="" style="ellipse;whiteSpace=wrap;html=1;aspect=fixed;fillColor=#f8cecc;strokeColor=#b85450;" parent="1" vertex="1">
          <mxGeometry x="270" y="810" width="20" height="20" as="geometry" />
        </mxCell>
        <mxCell id="PWnDcDmy1SN2u1ibr4in-245" value="" style="ellipse;whiteSpace=wrap;html=1;aspect=fixed;fillColor=#f8cecc;strokeColor=#b85450;" parent="1" vertex="1">
          <mxGeometry x="350" y="810" width="20" height="20" as="geometry" />
        </mxCell>
        <mxCell id="PWnDcDmy1SN2u1ibr4in-246" value="" style="ellipse;whiteSpace=wrap;html=1;aspect=fixed;fillColor=#f8cecc;strokeColor=#b85450;" parent="1" vertex="1">
          <mxGeometry x="430" y="810" width="20" height="20" as="geometry" />
        </mxCell>
        <mxCell id="PWnDcDmy1SN2u1ibr4in-247" value="" style="ellipse;whiteSpace=wrap;html=1;aspect=fixed;fillColor=#f8cecc;strokeColor=#b85450;" parent="1" vertex="1">
          <mxGeometry x="510" y="810" width="20" height="20" as="geometry" />
        </mxCell>
        <mxCell id="PWnDcDmy1SN2u1ibr4in-248" value="" style="ellipse;whiteSpace=wrap;html=1;aspect=fixed;fillColor=#f8cecc;strokeColor=#b85450;" parent="1" vertex="1">
          <mxGeometry x="630" y="810" width="20" height="20" as="geometry" />
        </mxCell>
        <mxCell id="PWnDcDmy1SN2u1ibr4in-249" value="" style="ellipse;whiteSpace=wrap;html=1;aspect=fixed;fillColor=#f8cecc;strokeColor=#b85450;" parent="1" vertex="1">
          <mxGeometry x="670" y="810" width="20" height="20" as="geometry" />
        </mxCell>
        <mxCell id="PWnDcDmy1SN2u1ibr4in-250" value="" style="ellipse;whiteSpace=wrap;html=1;aspect=fixed;fillColor=#f8cecc;strokeColor=#b85450;" parent="1" vertex="1">
          <mxGeometry x="590" y="810" width="20" height="20" as="geometry" />
        </mxCell>
        <mxCell id="PWnDcDmy1SN2u1ibr4in-251" value="" style="ellipse;whiteSpace=wrap;html=1;aspect=fixed;fillColor=#f8cecc;strokeColor=#b85450;" parent="1" vertex="1">
          <mxGeometry x="550" y="810" width="20" height="20" as="geometry" />
        </mxCell>
        <mxCell id="PWnDcDmy1SN2u1ibr4in-252" value="begin2 =&lt;br&gt;prev_ref_last" style="text;html=1;align=center;verticalAlign=middle;resizable=0;points=[];autosize=1;strokeColor=none;fillColor=none;" parent="1" vertex="1">
          <mxGeometry x="146" y="943" width="90" height="40" as="geometry" />
        </mxCell>
        <mxCell id="PWnDcDmy1SN2u1ibr4in-253" value="end2" style="text;html=1;align=center;verticalAlign=middle;resizable=0;points=[];autosize=1;strokeColor=none;fillColor=none;" parent="1" vertex="1">
          <mxGeometry x="415" y="942" width="50" height="30" as="geometry" />
        </mxCell>
        <mxCell id="PWnDcDmy1SN2u1ibr4in-254" value="" style="rounded=0;whiteSpace=wrap;html=1;fillColor=none;strokeColor=#FF1010;verticalAlign=top;labelPosition=center;verticalLabelPosition=bottom;align=center;fontColor=#009900;" parent="1" vertex="1">
          <mxGeometry x="185" y="845" width="30" height="30" as="geometry" />
        </mxCell>
        <mxCell id="PWnDcDmy1SN2u1ibr4in-255" value="inf" style="rounded=0;whiteSpace=wrap;html=1;fillColor=none;strokeColor=#00FF00;verticalAlign=bottom;labelPosition=center;verticalLabelPosition=top;align=center;fontColor=#009900;" parent="1" vertex="1">
          <mxGeometry x="216" y="885" width="30" height="30" as="geometry" />
        </mxCell>
        <mxCell id="PWnDcDmy1SN2u1ibr4in-256" value="sup" style="rounded=0;whiteSpace=wrap;html=1;fillColor=none;strokeColor=#00FF00;verticalAlign=bottom;labelPosition=center;verticalLabelPosition=top;align=center;fontColor=#009900;" parent="1" vertex="1">
          <mxGeometry x="385" y="845" width="30" height="30" as="geometry" />
        </mxCell>
        <mxCell id="PWnDcDmy1SN2u1ibr4in-257" value="ref_first" style="rounded=0;whiteSpace=wrap;html=1;fillColor=none;strokeColor=#00FF00;verticalAlign=bottom;labelPosition=center;verticalLabelPosition=top;align=center;fontColor=#009900;" parent="1" vertex="1">
          <mxGeometry x="216" y="805" width="30" height="30" as="geometry" />
        </mxCell>
        <mxCell id="PWnDcDmy1SN2u1ibr4in-258" value="ref_last" style="rounded=0;whiteSpace=wrap;html=1;fillColor=none;strokeColor=#00FF00;verticalAlign=bottom;labelPosition=center;verticalLabelPosition=top;align=center;fontColor=#009900;" parent="1" vertex="1">
          <mxGeometry x="345" y="805" width="30" height="30" as="geometry" />
        </mxCell>
        <mxCell id="PWnDcDmy1SN2u1ibr4in-259" value="" style="ellipse;whiteSpace=wrap;html=1;aspect=fixed;fillColor=#f8cecc;strokeColor=#b85450;" parent="1" vertex="1">
          <mxGeometry x="230" y="590" width="20" height="20" as="geometry" />
        </mxCell>
        <mxCell id="PWnDcDmy1SN2u1ibr4in-260" value="" style="ellipse;whiteSpace=wrap;html=1;aspect=fixed;fillColor=#f8cecc;strokeColor=#b85450;" parent="1" vertex="1">
          <mxGeometry x="221" y="810" width="20" height="20" as="geometry" />
        </mxCell>
        <mxCell id="PWnDcDmy1SN2u1ibr4in-261" value="" style="ellipse;whiteSpace=wrap;html=1;aspect=fixed;fillColor=#EA6B66;strokeColor=default;fillStyle=auto;fixDash=0;strokeWidth=1;shadow=1;" parent="1" vertex="1">
          <mxGeometry x="230" y="110" width="20" height="20" as="geometry" />
        </mxCell>
        <mxCell id="PWnDcDmy1SN2u1ibr4in-262" value="!" style="ellipse;whiteSpace=wrap;html=1;aspect=fixed;fillColor=#EA6B66;strokeColor=default;fillStyle=auto;fixDash=0;strokeWidth=1;shadow=1;" parent="1" vertex="1">
          <mxGeometry x="230" y="330" width="20" height="20" as="geometry" />
        </mxCell>
        <mxCell id="YMlbDQCDh1p6wZsKbMnQ-2" value="" style="endArrow=classic;html=1;rounded=0;endFill=1;" parent="1" edge="1">
          <mxGeometry width="50" height="50" relative="1" as="geometry">
            <mxPoint x="910" y="785" as="sourcePoint" />
            <mxPoint x="1180" y="785" as="targetPoint" />
          </mxGeometry>
        </mxCell>
        <mxCell id="YMlbDQCDh1p6wZsKbMnQ-3" value="ref" style="edgeLabel;html=1;align=center;verticalAlign=middle;resizable=0;points=[];" parent="YMlbDQCDh1p6wZsKbMnQ-2" vertex="1" connectable="0">
          <mxGeometry x="0.9826" y="-2" relative="1" as="geometry">
            <mxPoint x="16" y="8" as="offset" />
          </mxGeometry>
        </mxCell>
        <mxCell id="YMlbDQCDh1p6wZsKbMnQ-4" value="" style="endArrow=classic;html=1;rounded=0;endFill=1;" parent="1" edge="1">
          <mxGeometry width="50" height="50" relative="1" as="geometry">
            <mxPoint x="910" y="825" as="sourcePoint" />
            <mxPoint x="1180" y="825" as="targetPoint" />
          </mxGeometry>
        </mxCell>
        <mxCell id="YMlbDQCDh1p6wZsKbMnQ-5" value="a" style="edgeLabel;html=1;align=center;verticalAlign=middle;resizable=0;points=[];" parent="YMlbDQCDh1p6wZsKbMnQ-4" vertex="1" connectable="0">
          <mxGeometry x="0.97" y="2" relative="1" as="geometry">
            <mxPoint x="20" y="12" as="offset" />
          </mxGeometry>
        </mxCell>
        <mxCell id="YMlbDQCDh1p6wZsKbMnQ-20" value="" style="ellipse;whiteSpace=wrap;html=1;aspect=fixed;fillColor=#d5e8d4;strokeColor=#82b366;" parent="1" vertex="1">
          <mxGeometry x="950" y="815" width="20" height="20" as="geometry" />
        </mxCell>
        <mxCell id="YMlbDQCDh1p6wZsKbMnQ-21" value="" style="ellipse;whiteSpace=wrap;html=1;aspect=fixed;fillColor=#d5e8d4;strokeColor=#82b366;" parent="1" vertex="1">
          <mxGeometry x="990" y="815" width="20" height="20" as="geometry" />
        </mxCell>
        <mxCell id="YMlbDQCDh1p6wZsKbMnQ-22" value="" style="ellipse;whiteSpace=wrap;html=1;aspect=fixed;fillColor=#d5e8d4;strokeColor=#82b366;" parent="1" vertex="1">
          <mxGeometry x="1030" y="815" width="20" height="20" as="geometry" />
        </mxCell>
        <mxCell id="YMlbDQCDh1p6wZsKbMnQ-30" value="" style="ellipse;whiteSpace=wrap;html=1;aspect=fixed;fillColor=#f8cecc;strokeColor=#b85450;" parent="1" vertex="1">
          <mxGeometry x="950" y="775" width="20" height="20" as="geometry" />
        </mxCell>
        <mxCell id="YMlbDQCDh1p6wZsKbMnQ-33" value="" style="ellipse;whiteSpace=wrap;html=1;aspect=fixed;fillColor=#f8cecc;strokeColor=#b85450;" parent="1" vertex="1">
          <mxGeometry x="1110" y="775" width="20" height="20" as="geometry" />
        </mxCell>
        <mxCell id="YMlbDQCDh1p6wZsKbMnQ-46" value="" style="ellipse;whiteSpace=wrap;html=1;aspect=fixed;fillColor=#d5e8d4;strokeColor=#82b366;" parent="1" vertex="1">
          <mxGeometry x="1070" y="815" width="20" height="20" as="geometry" />
        </mxCell>
        <mxCell id="YMlbDQCDh1p6wZsKbMnQ-47" value="" style="ellipse;whiteSpace=wrap;html=1;aspect=fixed;fillColor=#d5e8d4;strokeColor=#82b366;" parent="1" vertex="1">
          <mxGeometry x="1110" y="815" width="20" height="20" as="geometry" />
        </mxCell>
        <mxCell id="YMlbDQCDh1p6wZsKbMnQ-48" value="" style="shape=flexArrow;endArrow=classic;startArrow=none;html=1;rounded=0;startFill=0;" parent="1" edge="1">
          <mxGeometry width="100" height="100" relative="1" as="geometry">
            <mxPoint x="1040" y="860" as="sourcePoint" />
            <mxPoint x="1040" y="900" as="targetPoint" />
          </mxGeometry>
        </mxCell>
        <mxCell id="YMlbDQCDh1p6wZsKbMnQ-51" value="" style="endArrow=classic;html=1;rounded=0;endFill=1;" parent="1" edge="1">
          <mxGeometry width="50" height="50" relative="1" as="geometry">
            <mxPoint x="910" y="940" as="sourcePoint" />
            <mxPoint x="1180" y="940" as="targetPoint" />
          </mxGeometry>
        </mxCell>
        <mxCell id="YMlbDQCDh1p6wZsKbMnQ-52" value="interpolated(a)" style="edgeLabel;html=1;align=center;verticalAlign=middle;resizable=0;points=[];" parent="YMlbDQCDh1p6wZsKbMnQ-51" vertex="1" connectable="0">
          <mxGeometry x="0.97" y="2" relative="1" as="geometry">
            <mxPoint x="34" y="19" as="offset" />
          </mxGeometry>
        </mxCell>
        <mxCell id="YMlbDQCDh1p6wZsKbMnQ-53" value="" style="ellipse;whiteSpace=wrap;html=1;aspect=fixed;fillColor=#d5e8d4;strokeColor=#82b366;" parent="1" vertex="1">
          <mxGeometry x="950" y="930" width="20" height="20" as="geometry" />
        </mxCell>
        <mxCell id="YMlbDQCDh1p6wZsKbMnQ-57" value="" style="ellipse;whiteSpace=wrap;html=1;aspect=fixed;fillColor=#d5e8d4;strokeColor=#82b366;" parent="1" vertex="1">
          <mxGeometry x="1110" y="930" width="20" height="20" as="geometry" />
        </mxCell>
        <mxCell id="YMlbDQCDh1p6wZsKbMnQ-58" value="" style="endArrow=classic;html=1;rounded=0;endFill=1;" parent="1" edge="1">
          <mxGeometry width="50" height="50" relative="1" as="geometry">
            <mxPoint x="1350" y="782.5" as="sourcePoint" />
            <mxPoint x="1620" y="782.5" as="targetPoint" />
          </mxGeometry>
        </mxCell>
        <mxCell id="YMlbDQCDh1p6wZsKbMnQ-59" value="ref" style="edgeLabel;html=1;align=center;verticalAlign=middle;resizable=0;points=[];" parent="YMlbDQCDh1p6wZsKbMnQ-58" vertex="1" connectable="0">
          <mxGeometry x="0.9826" y="-2" relative="1" as="geometry">
            <mxPoint x="16" y="8" as="offset" />
          </mxGeometry>
        </mxCell>
        <mxCell id="YMlbDQCDh1p6wZsKbMnQ-60" value="" style="endArrow=classic;html=1;rounded=0;endFill=1;" parent="1" edge="1">
          <mxGeometry width="50" height="50" relative="1" as="geometry">
            <mxPoint x="1350" y="822.5" as="sourcePoint" />
            <mxPoint x="1620" y="822.5" as="targetPoint" />
          </mxGeometry>
        </mxCell>
        <mxCell id="YMlbDQCDh1p6wZsKbMnQ-61" value="a" style="edgeLabel;html=1;align=center;verticalAlign=middle;resizable=0;points=[];" parent="YMlbDQCDh1p6wZsKbMnQ-60" vertex="1" connectable="0">
          <mxGeometry x="0.97" y="2" relative="1" as="geometry">
            <mxPoint x="20" y="12" as="offset" />
          </mxGeometry>
        </mxCell>
        <mxCell id="YMlbDQCDh1p6wZsKbMnQ-62" value="" style="ellipse;whiteSpace=wrap;html=1;aspect=fixed;fillColor=#d5e8d4;strokeColor=#82b366;" parent="1" vertex="1">
          <mxGeometry x="1390" y="812.5" width="20" height="20" as="geometry" />
        </mxCell>
        <mxCell id="YMlbDQCDh1p6wZsKbMnQ-63" value="" style="ellipse;whiteSpace=wrap;html=1;aspect=fixed;fillColor=#d5e8d4;strokeColor=#82b366;" parent="1" vertex="1">
          <mxGeometry x="1430" y="812.5" width="20" height="20" as="geometry" />
        </mxCell>
        <mxCell id="YMlbDQCDh1p6wZsKbMnQ-64" value="" style="ellipse;whiteSpace=wrap;html=1;aspect=fixed;fillColor=#d5e8d4;strokeColor=#82b366;" parent="1" vertex="1">
          <mxGeometry x="1470" y="812.5" width="20" height="20" as="geometry" />
        </mxCell>
        <mxCell id="YMlbDQCDh1p6wZsKbMnQ-65" value="" style="ellipse;whiteSpace=wrap;html=1;aspect=fixed;fillColor=#f8cecc;strokeColor=#b85450;" parent="1" vertex="1">
          <mxGeometry x="1390" y="772.5" width="20" height="20" as="geometry" />
        </mxCell>
        <mxCell id="YMlbDQCDh1p6wZsKbMnQ-66" value="" style="ellipse;whiteSpace=wrap;html=1;aspect=fixed;fillColor=#f8cecc;strokeColor=#b85450;" parent="1" vertex="1">
          <mxGeometry x="1550" y="772.5" width="20" height="20" as="geometry" />
        </mxCell>
        <mxCell id="YMlbDQCDh1p6wZsKbMnQ-67" value="" style="ellipse;whiteSpace=wrap;html=1;aspect=fixed;fillColor=#d5e8d4;strokeColor=#82b366;" parent="1" vertex="1">
          <mxGeometry x="1510" y="812.5" width="20" height="20" as="geometry" />
        </mxCell>
        <mxCell id="YMlbDQCDh1p6wZsKbMnQ-68" value="" style="ellipse;whiteSpace=wrap;html=1;aspect=fixed;fillColor=#d5e8d4;strokeColor=#82b366;" parent="1" vertex="1">
          <mxGeometry x="1550" y="812.5" width="20" height="20" as="geometry" />
        </mxCell>
        <mxCell id="YMlbDQCDh1p6wZsKbMnQ-69" value="" style="shape=flexArrow;endArrow=classic;startArrow=none;html=1;rounded=0;startFill=0;" parent="1" edge="1">
          <mxGeometry width="100" height="100" relative="1" as="geometry">
            <mxPoint x="1480" y="857.5" as="sourcePoint" />
            <mxPoint x="1480" y="897.5" as="targetPoint" />
          </mxGeometry>
        </mxCell>
        <mxCell id="YMlbDQCDh1p6wZsKbMnQ-70" value="" style="endArrow=classic;html=1;rounded=0;endFill=1;" parent="1" edge="1">
          <mxGeometry width="50" height="50" relative="1" as="geometry">
            <mxPoint x="1350" y="937.5" as="sourcePoint" />
            <mxPoint x="1620" y="937.5" as="targetPoint" />
          </mxGeometry>
        </mxCell>
        <mxCell id="YMlbDQCDh1p6wZsKbMnQ-71" value="interpolated(a)" style="edgeLabel;html=1;align=center;verticalAlign=middle;resizable=0;points=[];" parent="YMlbDQCDh1p6wZsKbMnQ-70" vertex="1" connectable="0">
          <mxGeometry x="0.97" y="2" relative="1" as="geometry">
            <mxPoint x="34" y="19" as="offset" />
          </mxGeometry>
        </mxCell>
        <mxCell id="YMlbDQCDh1p6wZsKbMnQ-72" value="" style="ellipse;whiteSpace=wrap;html=1;aspect=fixed;fillColor=#d5e8d4;strokeColor=#82b366;" parent="1" vertex="1">
          <mxGeometry x="1390" y="927.5" width="20" height="20" as="geometry" />
        </mxCell>
        <mxCell id="YMlbDQCDh1p6wZsKbMnQ-73" value="" style="ellipse;whiteSpace=wrap;html=1;aspect=fixed;fillColor=#d5e8d4;strokeColor=#82b366;" parent="1" vertex="1">
          <mxGeometry x="1550" y="927.5" width="20" height="20" as="geometry" />
        </mxCell>
        <mxCell id="YMlbDQCDh1p6wZsKbMnQ-90" value="" style="ellipse;whiteSpace=wrap;html=1;aspect=fixed;fillColor=#f8cecc;strokeColor=#b85450;" parent="1" vertex="1">
          <mxGeometry x="1490" y="775" width="20" height="20" as="geometry" />
        </mxCell>
        <mxCell id="YMlbDQCDh1p6wZsKbMnQ-91" value="" style="ellipse;whiteSpace=wrap;html=1;aspect=fixed;fillColor=#d5e8d4;strokeColor=#82b366;" parent="1" vertex="1">
          <mxGeometry x="1490" y="927.5" width="20" height="20" as="geometry" />
        </mxCell>
        <mxCell id="YMlbDQCDh1p6wZsKbMnQ-92" value="" style="endArrow=classic;html=1;rounded=0;endFill=1;" parent="1" edge="1">
          <mxGeometry width="50" height="50" relative="1" as="geometry">
            <mxPoint x="910" y="522.5" as="sourcePoint" />
            <mxPoint x="1180" y="522.5" as="targetPoint" />
          </mxGeometry>
        </mxCell>
        <mxCell id="YMlbDQCDh1p6wZsKbMnQ-93" value="ref" style="edgeLabel;html=1;align=center;verticalAlign=middle;resizable=0;points=[];" parent="YMlbDQCDh1p6wZsKbMnQ-92" vertex="1" connectable="0">
          <mxGeometry x="0.9826" y="-2" relative="1" as="geometry">
            <mxPoint x="16" y="8" as="offset" />
          </mxGeometry>
        </mxCell>
        <mxCell id="YMlbDQCDh1p6wZsKbMnQ-94" value="" style="endArrow=classic;html=1;rounded=0;endFill=1;" parent="1" edge="1">
          <mxGeometry width="50" height="50" relative="1" as="geometry">
            <mxPoint x="910" y="562.5" as="sourcePoint" />
            <mxPoint x="1180" y="562.5" as="targetPoint" />
          </mxGeometry>
        </mxCell>
        <mxCell id="YMlbDQCDh1p6wZsKbMnQ-95" value="a" style="edgeLabel;html=1;align=center;verticalAlign=middle;resizable=0;points=[];" parent="YMlbDQCDh1p6wZsKbMnQ-94" vertex="1" connectable="0">
          <mxGeometry x="0.97" y="2" relative="1" as="geometry">
            <mxPoint x="20" y="12" as="offset" />
          </mxGeometry>
        </mxCell>
        <mxCell id="YMlbDQCDh1p6wZsKbMnQ-96" value="" style="ellipse;whiteSpace=wrap;html=1;aspect=fixed;fillColor=#d5e8d4;strokeColor=#82b366;" parent="1" vertex="1">
          <mxGeometry x="950" y="552.5" width="20" height="20" as="geometry" />
        </mxCell>
        <mxCell id="YMlbDQCDh1p6wZsKbMnQ-98" value="" style="ellipse;whiteSpace=wrap;html=1;aspect=fixed;fillColor=#d5e8d4;strokeColor=#82b366;" parent="1" vertex="1">
          <mxGeometry x="1050" y="552.5" width="20" height="20" as="geometry" />
        </mxCell>
        <mxCell id="YMlbDQCDh1p6wZsKbMnQ-99" value="" style="ellipse;whiteSpace=wrap;html=1;aspect=fixed;fillColor=#f8cecc;strokeColor=#b85450;" parent="1" vertex="1">
          <mxGeometry x="950" y="512.5" width="20" height="20" as="geometry" />
        </mxCell>
        <mxCell id="YMlbDQCDh1p6wZsKbMnQ-100" value="" style="ellipse;whiteSpace=wrap;html=1;aspect=fixed;fillColor=#f8cecc;strokeColor=#b85450;" parent="1" vertex="1">
          <mxGeometry x="1110" y="512.5" width="20" height="20" as="geometry" />
        </mxCell>
        <mxCell id="YMlbDQCDh1p6wZsKbMnQ-102" value="" style="ellipse;whiteSpace=wrap;html=1;aspect=fixed;fillColor=#d5e8d4;strokeColor=#82b366;" parent="1" vertex="1">
          <mxGeometry x="1110" y="552.5" width="20" height="20" as="geometry" />
        </mxCell>
        <mxCell id="YMlbDQCDh1p6wZsKbMnQ-103" value="" style="shape=flexArrow;endArrow=classic;startArrow=none;html=1;rounded=0;startFill=0;" parent="1" edge="1">
          <mxGeometry width="100" height="100" relative="1" as="geometry">
            <mxPoint x="1040" y="597.5" as="sourcePoint" />
            <mxPoint x="1040" y="637.5" as="targetPoint" />
          </mxGeometry>
        </mxCell>
        <mxCell id="YMlbDQCDh1p6wZsKbMnQ-104" value="" style="endArrow=classic;html=1;rounded=0;endFill=1;" parent="1" edge="1">
          <mxGeometry width="50" height="50" relative="1" as="geometry">
            <mxPoint x="910" y="677.5" as="sourcePoint" />
            <mxPoint x="1180" y="677.5" as="targetPoint" />
          </mxGeometry>
        </mxCell>
        <mxCell id="YMlbDQCDh1p6wZsKbMnQ-105" value="interpolated(a)" style="edgeLabel;html=1;align=center;verticalAlign=middle;resizable=0;points=[];" parent="YMlbDQCDh1p6wZsKbMnQ-104" vertex="1" connectable="0">
          <mxGeometry x="0.97" y="2" relative="1" as="geometry">
            <mxPoint x="34" y="19" as="offset" />
          </mxGeometry>
        </mxCell>
        <mxCell id="YMlbDQCDh1p6wZsKbMnQ-106" value="" style="ellipse;whiteSpace=wrap;html=1;aspect=fixed;fillColor=#d5e8d4;strokeColor=#82b366;" parent="1" vertex="1">
          <mxGeometry x="950" y="667.5" width="20" height="20" as="geometry" />
        </mxCell>
        <mxCell id="YMlbDQCDh1p6wZsKbMnQ-107" value="" style="ellipse;whiteSpace=wrap;html=1;aspect=fixed;fillColor=#d5e8d4;strokeColor=#82b366;" parent="1" vertex="1">
          <mxGeometry x="1110" y="667.5" width="20" height="20" as="geometry" />
        </mxCell>
        <mxCell id="YMlbDQCDh1p6wZsKbMnQ-108" value="" style="ellipse;whiteSpace=wrap;html=1;aspect=fixed;fillColor=#f8cecc;strokeColor=#b85450;" parent="1" vertex="1">
          <mxGeometry x="990" y="512.5" width="20" height="20" as="geometry" />
        </mxCell>
        <mxCell id="YMlbDQCDh1p6wZsKbMnQ-109" value="" style="ellipse;whiteSpace=wrap;html=1;aspect=fixed;fillColor=#f8cecc;strokeColor=#b85450;" parent="1" vertex="1">
          <mxGeometry x="1030" y="512.5" width="20" height="20" as="geometry" />
        </mxCell>
        <mxCell id="YMlbDQCDh1p6wZsKbMnQ-110" value="" style="ellipse;whiteSpace=wrap;html=1;aspect=fixed;fillColor=#f8cecc;strokeColor=#b85450;" parent="1" vertex="1">
          <mxGeometry x="1070" y="512.5" width="20" height="20" as="geometry" />
        </mxCell>
        <mxCell id="YMlbDQCDh1p6wZsKbMnQ-111" value="" style="ellipse;whiteSpace=wrap;html=1;aspect=fixed;fillColor=#d5e8d4;strokeColor=#82b366;" parent="1" vertex="1">
          <mxGeometry x="1030" y="667.5" width="20" height="20" as="geometry" />
        </mxCell>
        <mxCell id="YMlbDQCDh1p6wZsKbMnQ-113" value="" style="ellipse;whiteSpace=wrap;html=1;aspect=fixed;fillColor=#d5e8d4;strokeColor=#82b366;" parent="1" vertex="1">
          <mxGeometry x="1070" y="667.5" width="20" height="20" as="geometry" />
        </mxCell>
        <mxCell id="YMlbDQCDh1p6wZsKbMnQ-114" value="" style="ellipse;whiteSpace=wrap;html=1;aspect=fixed;fillColor=#d5e8d4;strokeColor=#82b366;" parent="1" vertex="1">
          <mxGeometry x="990" y="667.5" width="20" height="20" as="geometry" />
        </mxCell>
        <mxCell id="YMlbDQCDh1p6wZsKbMnQ-115" value="" style="endArrow=classic;html=1;rounded=0;endFill=1;" parent="1" edge="1">
          <mxGeometry width="50" height="50" relative="1" as="geometry">
            <mxPoint x="1350" y="522.5" as="sourcePoint" />
            <mxPoint x="1620" y="522.5" as="targetPoint" />
          </mxGeometry>
        </mxCell>
        <mxCell id="YMlbDQCDh1p6wZsKbMnQ-116" value="ref" style="edgeLabel;html=1;align=center;verticalAlign=middle;resizable=0;points=[];" parent="YMlbDQCDh1p6wZsKbMnQ-115" vertex="1" connectable="0">
          <mxGeometry x="0.9826" y="-2" relative="1" as="geometry">
            <mxPoint x="16" y="8" as="offset" />
          </mxGeometry>
        </mxCell>
        <mxCell id="YMlbDQCDh1p6wZsKbMnQ-117" value="" style="endArrow=classic;html=1;rounded=0;endFill=1;" parent="1" edge="1">
          <mxGeometry width="50" height="50" relative="1" as="geometry">
            <mxPoint x="1350" y="562.5" as="sourcePoint" />
            <mxPoint x="1620" y="562.5" as="targetPoint" />
          </mxGeometry>
        </mxCell>
        <mxCell id="YMlbDQCDh1p6wZsKbMnQ-118" value="a" style="edgeLabel;html=1;align=center;verticalAlign=middle;resizable=0;points=[];" parent="YMlbDQCDh1p6wZsKbMnQ-117" vertex="1" connectable="0">
          <mxGeometry x="0.97" y="2" relative="1" as="geometry">
            <mxPoint x="20" y="12" as="offset" />
          </mxGeometry>
        </mxCell>
        <mxCell id="YMlbDQCDh1p6wZsKbMnQ-119" value="" style="ellipse;whiteSpace=wrap;html=1;aspect=fixed;fillColor=#d5e8d4;strokeColor=#82b366;" parent="1" vertex="1">
          <mxGeometry x="1410" y="552.5" width="20" height="20" as="geometry" />
        </mxCell>
        <mxCell id="YMlbDQCDh1p6wZsKbMnQ-120" value="" style="ellipse;whiteSpace=wrap;html=1;aspect=fixed;fillColor=#d5e8d4;strokeColor=#82b366;" parent="1" vertex="1">
          <mxGeometry x="1490" y="552.5" width="20" height="20" as="geometry" />
        </mxCell>
        <mxCell id="YMlbDQCDh1p6wZsKbMnQ-122" value="" style="ellipse;whiteSpace=wrap;html=1;aspect=fixed;fillColor=#f8cecc;strokeColor=#b85450;" parent="1" vertex="1">
          <mxGeometry x="1550" y="512.5" width="20" height="20" as="geometry" />
        </mxCell>
        <mxCell id="YMlbDQCDh1p6wZsKbMnQ-123" value="" style="ellipse;whiteSpace=wrap;html=1;aspect=fixed;fillColor=#d5e8d4;strokeColor=#82b366;" parent="1" vertex="1">
          <mxGeometry x="1550" y="552.5" width="20" height="20" as="geometry" />
        </mxCell>
        <mxCell id="YMlbDQCDh1p6wZsKbMnQ-124" value="" style="shape=flexArrow;endArrow=classic;startArrow=none;html=1;rounded=0;startFill=0;" parent="1" edge="1">
          <mxGeometry width="100" height="100" relative="1" as="geometry">
            <mxPoint x="1480" y="597.5" as="sourcePoint" />
            <mxPoint x="1480" y="637.5" as="targetPoint" />
          </mxGeometry>
        </mxCell>
        <mxCell id="YMlbDQCDh1p6wZsKbMnQ-125" value="" style="endArrow=classic;html=1;rounded=0;endFill=1;" parent="1" edge="1">
          <mxGeometry width="50" height="50" relative="1" as="geometry">
            <mxPoint x="1350" y="677.5" as="sourcePoint" />
            <mxPoint x="1620" y="677.5" as="targetPoint" />
          </mxGeometry>
        </mxCell>
        <mxCell id="YMlbDQCDh1p6wZsKbMnQ-126" value="interpolated(a)" style="edgeLabel;html=1;align=center;verticalAlign=middle;resizable=0;points=[];" parent="YMlbDQCDh1p6wZsKbMnQ-125" vertex="1" connectable="0">
          <mxGeometry x="0.97" y="2" relative="1" as="geometry">
            <mxPoint x="34" y="19" as="offset" />
          </mxGeometry>
        </mxCell>
        <mxCell id="YMlbDQCDh1p6wZsKbMnQ-128" value="" style="ellipse;whiteSpace=wrap;html=1;aspect=fixed;fillColor=#d5e8d4;strokeColor=#82b366;" parent="1" vertex="1">
          <mxGeometry x="1550" y="667.5" width="20" height="20" as="geometry" />
        </mxCell>
        <mxCell id="YMlbDQCDh1p6wZsKbMnQ-129" value="" style="ellipse;whiteSpace=wrap;html=1;aspect=fixed;fillColor=#f8cecc;strokeColor=#b85450;" parent="1" vertex="1">
          <mxGeometry x="1430" y="512.5" width="20" height="20" as="geometry" />
        </mxCell>
        <mxCell id="YMlbDQCDh1p6wZsKbMnQ-130" value="" style="ellipse;whiteSpace=wrap;html=1;aspect=fixed;fillColor=#f8cecc;strokeColor=#b85450;" parent="1" vertex="1">
          <mxGeometry x="1470" y="512.5" width="20" height="20" as="geometry" />
        </mxCell>
        <mxCell id="YMlbDQCDh1p6wZsKbMnQ-131" value="" style="ellipse;whiteSpace=wrap;html=1;aspect=fixed;fillColor=#f8cecc;strokeColor=#b85450;" parent="1" vertex="1">
          <mxGeometry x="1510" y="512.5" width="20" height="20" as="geometry" />
        </mxCell>
        <mxCell id="YMlbDQCDh1p6wZsKbMnQ-132" value="" style="ellipse;whiteSpace=wrap;html=1;aspect=fixed;fillColor=#d5e8d4;strokeColor=#82b366;" parent="1" vertex="1">
          <mxGeometry x="1470" y="667.5" width="20" height="20" as="geometry" />
        </mxCell>
        <mxCell id="YMlbDQCDh1p6wZsKbMnQ-133" value="" style="ellipse;whiteSpace=wrap;html=1;aspect=fixed;fillColor=#d5e8d4;strokeColor=#82b366;" parent="1" vertex="1">
          <mxGeometry x="1510" y="667.5" width="20" height="20" as="geometry" />
        </mxCell>
        <mxCell id="YMlbDQCDh1p6wZsKbMnQ-134" value="" style="ellipse;whiteSpace=wrap;html=1;aspect=fixed;fillColor=#d5e8d4;strokeColor=#82b366;" parent="1" vertex="1">
          <mxGeometry x="1430" y="667.5" width="20" height="20" as="geometry" />
        </mxCell>
        <mxCell id="YMlbDQCDh1p6wZsKbMnQ-137" value="" style="endArrow=classic;html=1;rounded=0;endFill=1;" parent="1" edge="1">
          <mxGeometry width="50" height="50" relative="1" as="geometry">
            <mxPoint x="1700" y="522.5" as="sourcePoint" />
            <mxPoint x="1970" y="522.5" as="targetPoint" />
          </mxGeometry>
        </mxCell>
        <mxCell id="YMlbDQCDh1p6wZsKbMnQ-138" value="ref" style="edgeLabel;html=1;align=center;verticalAlign=middle;resizable=0;points=[];" parent="YMlbDQCDh1p6wZsKbMnQ-137" vertex="1" connectable="0">
          <mxGeometry x="0.9826" y="-2" relative="1" as="geometry">
            <mxPoint x="16" y="8" as="offset" />
          </mxGeometry>
        </mxCell>
        <mxCell id="YMlbDQCDh1p6wZsKbMnQ-139" value="" style="endArrow=classic;html=1;rounded=0;endFill=1;" parent="1" edge="1">
          <mxGeometry width="50" height="50" relative="1" as="geometry">
            <mxPoint x="1700" y="562.5" as="sourcePoint" />
            <mxPoint x="1970" y="562.5" as="targetPoint" />
          </mxGeometry>
        </mxCell>
        <mxCell id="YMlbDQCDh1p6wZsKbMnQ-140" value="a" style="edgeLabel;html=1;align=center;verticalAlign=middle;resizable=0;points=[];" parent="YMlbDQCDh1p6wZsKbMnQ-139" vertex="1" connectable="0">
          <mxGeometry x="0.97" y="2" relative="1" as="geometry">
            <mxPoint x="20" y="12" as="offset" />
          </mxGeometry>
        </mxCell>
        <mxCell id="YMlbDQCDh1p6wZsKbMnQ-141" value="" style="ellipse;whiteSpace=wrap;html=1;aspect=fixed;fillColor=#d5e8d4;strokeColor=#82b366;" parent="1" vertex="1">
          <mxGeometry x="1760" y="552.5" width="20" height="20" as="geometry" />
        </mxCell>
        <mxCell id="YMlbDQCDh1p6wZsKbMnQ-142" value="" style="ellipse;whiteSpace=wrap;html=1;aspect=fixed;fillColor=#d5e8d4;strokeColor=#82b366;" parent="1" vertex="1">
          <mxGeometry x="1840" y="552.5" width="20" height="20" as="geometry" />
        </mxCell>
        <mxCell id="YMlbDQCDh1p6wZsKbMnQ-144" value="" style="ellipse;whiteSpace=wrap;html=1;aspect=fixed;fillColor=#d5e8d4;strokeColor=#82b366;" parent="1" vertex="1">
          <mxGeometry x="1900" y="552.5" width="20" height="20" as="geometry" />
        </mxCell>
        <mxCell id="YMlbDQCDh1p6wZsKbMnQ-145" value="" style="shape=flexArrow;endArrow=classic;startArrow=none;html=1;rounded=0;startFill=0;" parent="1" edge="1">
          <mxGeometry width="100" height="100" relative="1" as="geometry">
            <mxPoint x="1830" y="597.5" as="sourcePoint" />
            <mxPoint x="1830" y="637.5" as="targetPoint" />
          </mxGeometry>
        </mxCell>
        <mxCell id="YMlbDQCDh1p6wZsKbMnQ-146" value="" style="endArrow=classic;html=1;rounded=0;endFill=1;" parent="1" edge="1">
          <mxGeometry width="50" height="50" relative="1" as="geometry">
            <mxPoint x="1700" y="677.5" as="sourcePoint" />
            <mxPoint x="1970" y="677.5" as="targetPoint" />
          </mxGeometry>
        </mxCell>
        <mxCell id="YMlbDQCDh1p6wZsKbMnQ-147" value="interpolated(a)" style="edgeLabel;html=1;align=center;verticalAlign=middle;resizable=0;points=[];" parent="YMlbDQCDh1p6wZsKbMnQ-146" vertex="1" connectable="0">
          <mxGeometry x="0.97" y="2" relative="1" as="geometry">
            <mxPoint x="34" y="19" as="offset" />
          </mxGeometry>
        </mxCell>
        <mxCell id="YMlbDQCDh1p6wZsKbMnQ-149" value="" style="ellipse;whiteSpace=wrap;html=1;aspect=fixed;fillColor=#f8cecc;strokeColor=#b85450;" parent="1" vertex="1">
          <mxGeometry x="1780" y="512.5" width="20" height="20" as="geometry" />
        </mxCell>
        <mxCell id="YMlbDQCDh1p6wZsKbMnQ-150" value="" style="ellipse;whiteSpace=wrap;html=1;aspect=fixed;fillColor=#f8cecc;strokeColor=#b85450;" parent="1" vertex="1">
          <mxGeometry x="1820" y="512.5" width="20" height="20" as="geometry" />
        </mxCell>
        <mxCell id="YMlbDQCDh1p6wZsKbMnQ-151" value="" style="ellipse;whiteSpace=wrap;html=1;aspect=fixed;fillColor=#f8cecc;strokeColor=#b85450;" parent="1" vertex="1">
          <mxGeometry x="1860" y="512.5" width="20" height="20" as="geometry" />
        </mxCell>
        <mxCell id="YMlbDQCDh1p6wZsKbMnQ-152" value="" style="ellipse;whiteSpace=wrap;html=1;aspect=fixed;fillColor=#d5e8d4;strokeColor=#82b366;" parent="1" vertex="1">
          <mxGeometry x="1820" y="667.5" width="20" height="20" as="geometry" />
        </mxCell>
        <mxCell id="YMlbDQCDh1p6wZsKbMnQ-153" value="" style="ellipse;whiteSpace=wrap;html=1;aspect=fixed;fillColor=#d5e8d4;strokeColor=#82b366;" parent="1" vertex="1">
          <mxGeometry x="1860" y="667.5" width="20" height="20" as="geometry" />
        </mxCell>
        <mxCell id="YMlbDQCDh1p6wZsKbMnQ-154" value="" style="ellipse;whiteSpace=wrap;html=1;aspect=fixed;fillColor=#d5e8d4;strokeColor=#82b366;" parent="1" vertex="1">
          <mxGeometry x="1780" y="667.5" width="20" height="20" as="geometry" />
        </mxCell>
        <mxCell id="YMlbDQCDh1p6wZsKbMnQ-158" value="" style="ellipse;whiteSpace=wrap;html=1;aspect=fixed;fillColor=#f8cecc;strokeColor=#b85450;" parent="1" vertex="1">
          <mxGeometry x="1730" y="512.5" width="20" height="20" as="geometry" />
        </mxCell>
        <mxCell id="v2gykMtDTvqXXohVFF2z-1" value="" style="endArrow=classic;html=1;rounded=0;endFill=1;" parent="1" edge="1">
          <mxGeometry width="50" height="50" relative="1" as="geometry">
            <mxPoint x="2270" y="585" as="sourcePoint" />
            <mxPoint x="2540" y="585" as="targetPoint" />
          </mxGeometry>
        </mxCell>
        <mxCell id="v2gykMtDTvqXXohVFF2z-2" value="ref" style="edgeLabel;html=1;align=center;verticalAlign=middle;resizable=0;points=[];" parent="v2gykMtDTvqXXohVFF2z-1" vertex="1" connectable="0">
          <mxGeometry x="0.9826" y="-2" relative="1" as="geometry">
            <mxPoint x="16" y="8" as="offset" />
          </mxGeometry>
        </mxCell>
        <mxCell id="v2gykMtDTvqXXohVFF2z-3" value="" style="endArrow=classic;html=1;rounded=0;endFill=1;" parent="1" edge="1">
          <mxGeometry width="50" height="50" relative="1" as="geometry">
            <mxPoint x="2270" y="625" as="sourcePoint" />
            <mxPoint x="2540" y="625" as="targetPoint" />
          </mxGeometry>
        </mxCell>
        <mxCell id="v2gykMtDTvqXXohVFF2z-4" value="a" style="edgeLabel;html=1;align=center;verticalAlign=middle;resizable=0;points=[];" parent="v2gykMtDTvqXXohVFF2z-3" vertex="1" connectable="0">
          <mxGeometry x="0.97" y="2" relative="1" as="geometry">
            <mxPoint x="20" y="12" as="offset" />
          </mxGeometry>
        </mxCell>
        <mxCell id="v2gykMtDTvqXXohVFF2z-5" value="" style="ellipse;whiteSpace=wrap;html=1;aspect=fixed;fillColor=#d5e8d4;strokeColor=#82b366;" parent="1" vertex="1">
          <mxGeometry x="2310" y="615" width="20" height="20" as="geometry" />
        </mxCell>
        <mxCell id="v2gykMtDTvqXXohVFF2z-6" value="" style="ellipse;whiteSpace=wrap;html=1;aspect=fixed;fillColor=#d5e8d4;strokeColor=#82b366;" parent="1" vertex="1">
          <mxGeometry x="2410" y="615" width="20" height="20" as="geometry" />
        </mxCell>
        <mxCell id="v2gykMtDTvqXXohVFF2z-7" value="" style="ellipse;whiteSpace=wrap;html=1;aspect=fixed;fillColor=#f8cecc;strokeColor=#b85450;" parent="1" vertex="1">
          <mxGeometry x="2310" y="575" width="20" height="20" as="geometry" />
        </mxCell>
        <mxCell id="v2gykMtDTvqXXohVFF2z-8" value="" style="ellipse;whiteSpace=wrap;html=1;aspect=fixed;fillColor=#f8cecc;strokeColor=#b85450;" parent="1" vertex="1">
          <mxGeometry x="2470" y="575" width="20" height="20" as="geometry" />
        </mxCell>
        <mxCell id="v2gykMtDTvqXXohVFF2z-9" value="" style="ellipse;whiteSpace=wrap;html=1;aspect=fixed;fillColor=#d5e8d4;strokeColor=#82b366;" parent="1" vertex="1">
          <mxGeometry x="2470" y="615" width="20" height="20" as="geometry" />
        </mxCell>
        <mxCell id="v2gykMtDTvqXXohVFF2z-10" value="" style="shape=flexArrow;endArrow=classic;startArrow=none;html=1;rounded=0;startFill=0;" parent="1" edge="1">
          <mxGeometry width="100" height="100" relative="1" as="geometry">
            <mxPoint x="2400" y="711" as="sourcePoint" />
            <mxPoint x="2400" y="751" as="targetPoint" />
          </mxGeometry>
        </mxCell>
        <mxCell id="v2gykMtDTvqXXohVFF2z-11" value="" style="endArrow=classic;html=1;rounded=0;endFill=1;" parent="1" edge="1">
          <mxGeometry width="50" height="50" relative="1" as="geometry">
            <mxPoint x="2270" y="791" as="sourcePoint" />
            <mxPoint x="2540" y="791" as="targetPoint" />
          </mxGeometry>
        </mxCell>
        <mxCell id="v2gykMtDTvqXXohVFF2z-12" value="interpolated(a)" style="edgeLabel;html=1;align=center;verticalAlign=middle;resizable=0;points=[];" parent="v2gykMtDTvqXXohVFF2z-11" vertex="1" connectable="0">
          <mxGeometry x="0.97" y="2" relative="1" as="geometry">
            <mxPoint x="34" y="19" as="offset" />
          </mxGeometry>
        </mxCell>
        <mxCell id="v2gykMtDTvqXXohVFF2z-13" value="" style="ellipse;whiteSpace=wrap;html=1;aspect=fixed;fillColor=#d5e8d4;strokeColor=#82b366;" parent="1" vertex="1">
          <mxGeometry x="2310" y="781" width="20" height="20" as="geometry" />
        </mxCell>
        <mxCell id="v2gykMtDTvqXXohVFF2z-14" value="" style="ellipse;whiteSpace=wrap;html=1;aspect=fixed;fillColor=#d5e8d4;strokeColor=#82b366;" parent="1" vertex="1">
          <mxGeometry x="2470" y="781" width="20" height="20" as="geometry" />
        </mxCell>
        <mxCell id="v2gykMtDTvqXXohVFF2z-16" value="" style="ellipse;whiteSpace=wrap;html=1;aspect=fixed;fillColor=#f8cecc;strokeColor=#b85450;" parent="1" vertex="1">
          <mxGeometry x="2390" y="575" width="20" height="20" as="geometry" />
        </mxCell>
        <mxCell id="v2gykMtDTvqXXohVFF2z-17" value="" style="ellipse;whiteSpace=wrap;html=1;aspect=fixed;fillColor=#f8cecc;strokeColor=#b85450;" parent="1" vertex="1">
          <mxGeometry x="2430" y="575" width="20" height="20" as="geometry" />
        </mxCell>
        <mxCell id="v2gykMtDTvqXXohVFF2z-18" value="" style="ellipse;whiteSpace=wrap;html=1;aspect=fixed;fillColor=#d5e8d4;strokeColor=#82b366;" parent="1" vertex="1">
          <mxGeometry x="2390" y="781" width="20" height="20" as="geometry" />
        </mxCell>
        <mxCell id="v2gykMtDTvqXXohVFF2z-19" value="" style="ellipse;whiteSpace=wrap;html=1;aspect=fixed;fillColor=#d5e8d4;strokeColor=#82b366;" parent="1" vertex="1">
          <mxGeometry x="2430" y="781" width="20" height="20" as="geometry" />
        </mxCell>
        <mxCell id="v2gykMtDTvqXXohVFF2z-21" value="" style="endArrow=classic;html=1;rounded=0;endFill=1;" parent="1" edge="1">
          <mxGeometry width="50" height="50" relative="1" as="geometry">
            <mxPoint x="2270" y="665" as="sourcePoint" />
            <mxPoint x="2540" y="665" as="targetPoint" />
          </mxGeometry>
        </mxCell>
        <mxCell id="v2gykMtDTvqXXohVFF2z-22" value="b" style="edgeLabel;html=1;align=center;verticalAlign=middle;resizable=0;points=[];" parent="v2gykMtDTvqXXohVFF2z-21" vertex="1" connectable="0">
          <mxGeometry x="0.97" y="2" relative="1" as="geometry">
            <mxPoint x="20" y="12" as="offset" />
          </mxGeometry>
        </mxCell>
        <mxCell id="v2gykMtDTvqXXohVFF2z-23" value="" style="ellipse;whiteSpace=wrap;html=1;aspect=fixed;fillColor=#dae8fc;strokeColor=#6c8ebf;" parent="1" vertex="1">
          <mxGeometry x="2290" y="655" width="20" height="20" as="geometry" />
        </mxCell>
        <mxCell id="v2gykMtDTvqXXohVFF2z-25" value="" style="ellipse;whiteSpace=wrap;html=1;aspect=fixed;fillColor=#dae8fc;strokeColor=#6c8ebf;" parent="1" vertex="1">
          <mxGeometry x="2500" y="655" width="20" height="20" as="geometry" />
        </mxCell>
        <mxCell id="v2gykMtDTvqXXohVFF2z-28" value="" style="endArrow=classic;html=1;rounded=0;endFill=1;" parent="1" edge="1">
          <mxGeometry width="50" height="50" relative="1" as="geometry">
            <mxPoint x="2270" y="855" as="sourcePoint" />
            <mxPoint x="2540" y="855" as="targetPoint" />
          </mxGeometry>
        </mxCell>
        <mxCell id="v2gykMtDTvqXXohVFF2z-29" value="interpolated(b)" style="edgeLabel;html=1;align=center;verticalAlign=middle;resizable=0;points=[];" parent="v2gykMtDTvqXXohVFF2z-28" vertex="1" connectable="0">
          <mxGeometry x="0.97" y="2" relative="1" as="geometry">
            <mxPoint x="34" y="19" as="offset" />
          </mxGeometry>
        </mxCell>
        <mxCell id="v2gykMtDTvqXXohVFF2z-30" value="" style="ellipse;whiteSpace=wrap;html=1;aspect=fixed;fillColor=#dae8fc;strokeColor=#6c8ebf;" parent="1" vertex="1">
          <mxGeometry x="2310" y="845" width="20" height="20" as="geometry" />
        </mxCell>
        <mxCell id="v2gykMtDTvqXXohVFF2z-31" value="" style="ellipse;whiteSpace=wrap;html=1;aspect=fixed;fillColor=#dae8fc;strokeColor=#6c8ebf;" parent="1" vertex="1">
          <mxGeometry x="2470" y="845" width="20" height="20" as="geometry" />
        </mxCell>
        <mxCell id="v2gykMtDTvqXXohVFF2z-32" value="" style="ellipse;whiteSpace=wrap;html=1;aspect=fixed;fillColor=#dae8fc;strokeColor=#6c8ebf;" parent="1" vertex="1">
          <mxGeometry x="2390" y="845" width="20" height="20" as="geometry" />
        </mxCell>
        <mxCell id="v2gykMtDTvqXXohVFF2z-33" value="" style="ellipse;whiteSpace=wrap;html=1;aspect=fixed;fillColor=#dae8fc;strokeColor=#6c8ebf;" parent="1" vertex="1">
          <mxGeometry x="2430" y="845" width="20" height="20" as="geometry" />
        </mxCell>
        <mxCell id="v2gykMtDTvqXXohVFF2z-35" value="" style="ellipse;whiteSpace=wrap;html=1;aspect=fixed;fillColor=#dae8fc;strokeColor=#6c8ebf;" parent="1" vertex="1">
          <mxGeometry x="2350" y="655" width="20" height="20" as="geometry" />
        </mxCell>
      </root>
    </mxGraphModel>
  </diagram>
</mxfile>
